<mxfile host="Electron" modified="2023-12-19T21:38:58.037Z" agent="Mozilla/5.0 (Macintosh; Intel Mac OS X 10_15_7) AppleWebKit/537.36 (KHTML, like Gecko) draw.io/22.1.2 Chrome/114.0.5735.289 Electron/25.9.4 Safari/537.36" etag="Yxyd9TExaGjUZRVVo-15" version="22.1.2" type="device" pages="13">
  <diagram name="main" id="vCOjFY50klwT_ioAiCl8">
    <mxGraphModel dx="804" dy="670" grid="1" gridSize="10" guides="1" tooltips="1" connect="1" arrows="1" fold="1" page="1" pageScale="1" pageWidth="827" pageHeight="1169" math="0" shadow="0">
      <root>
        <mxCell id="0" />
        <mxCell id="1" parent="0" />
        <mxCell id="zLWZQ6UVor699-_aeCOs-1" value="начало" style="rounded=1;whiteSpace=wrap;html=1;" parent="1" vertex="1">
          <mxGeometry x="200" y="40" width="120" height="40" as="geometry" />
        </mxCell>
        <mxCell id="zLWZQ6UVor699-_aeCOs-2" value="" style="endArrow=none;html=1;rounded=0;entryX=0.5;entryY=1;entryDx=0;entryDy=0;exitX=0.5;exitY=0;exitDx=0;exitDy=0;" parent="1" target="zLWZQ6UVor699-_aeCOs-1" edge="1">
          <mxGeometry width="50" height="50" relative="1" as="geometry">
            <mxPoint x="260" y="110" as="sourcePoint" />
            <mxPoint x="470" y="220" as="targetPoint" />
          </mxGeometry>
        </mxCell>
        <mxCell id="zLWZQ6UVor699-_aeCOs-4" value="menu()" style="shape=process;whiteSpace=wrap;html=1;backgroundOutline=1;" parent="1" vertex="1">
          <mxGeometry x="200" y="100" width="120" height="40" as="geometry" />
        </mxCell>
        <mxCell id="zLWZQ6UVor699-_aeCOs-5" value="" style="endArrow=none;html=1;rounded=0;entryX=0.5;entryY=1;entryDx=0;entryDy=0;exitX=0.5;exitY=0;exitDx=0;exitDy=0;" parent="1" source="zLWZQ6UVor699-_aeCOs-6" target="zLWZQ6UVor699-_aeCOs-4" edge="1">
          <mxGeometry width="50" height="50" relative="1" as="geometry">
            <mxPoint x="260" y="210" as="sourcePoint" />
            <mxPoint x="470" y="220" as="targetPoint" />
          </mxGeometry>
        </mxCell>
        <mxCell id="zLWZQ6UVor699-_aeCOs-6" value="конец" style="rounded=1;whiteSpace=wrap;html=1;" parent="1" vertex="1">
          <mxGeometry x="200" y="160" width="120" height="40" as="geometry" />
        </mxCell>
      </root>
    </mxGraphModel>
  </diagram>
  <diagram id="QjJ8_9nZTXKAwwL-0gy7" name="menu">
    <mxGraphModel dx="912" dy="670" grid="1" gridSize="10" guides="1" tooltips="1" connect="1" arrows="1" fold="1" page="1" pageScale="1" pageWidth="827" pageHeight="1169" math="0" shadow="0">
      <root>
        <mxCell id="0" />
        <mxCell id="1" parent="0" />
        <mxCell id="acnz2K3QiTht51wy8JcN-1" value="menu()&lt;br&gt;начало" style="rounded=1;whiteSpace=wrap;html=1;" parent="1" vertex="1">
          <mxGeometry x="80" width="120" height="40" as="geometry" />
        </mxCell>
        <mxCell id="acnz2K3QiTht51wy8JcN-2" value="" style="endArrow=none;html=1;rounded=0;entryX=0.5;entryY=1;entryDx=0;entryDy=0;exitX=0.5;exitY=0;exitDx=0;exitDy=0;" parent="1" source="yaw6lklJcpAuil3reAUE-1" target="acnz2K3QiTht51wy8JcN-1" edge="1">
          <mxGeometry width="50" height="50" relative="1" as="geometry">
            <mxPoint x="140.0050000000001" y="80" as="sourcePoint" />
            <mxPoint x="550" y="320" as="targetPoint" />
          </mxGeometry>
        </mxCell>
        <mxCell id="acnz2K3QiTht51wy8JcN-4" value="ввод: value" style="shape=parallelogram;perimeter=parallelogramPerimeter;whiteSpace=wrap;html=1;fixedSize=1;" parent="1" vertex="1">
          <mxGeometry x="80" y="220" width="120" height="50" as="geometry" />
        </mxCell>
        <mxCell id="acnz2K3QiTht51wy8JcN-6" value="" style="endArrow=none;html=1;rounded=0;entryX=0.5;entryY=1;entryDx=0;entryDy=0;exitX=0.5;exitY=0;exitDx=0;exitDy=0;" parent="1" source="acnz2K3QiTht51wy8JcN-7" target="acnz2K3QiTht51wy8JcN-4" edge="1">
          <mxGeometry width="50" height="50" relative="1" as="geometry">
            <mxPoint x="120" y="300" as="sourcePoint" />
            <mxPoint x="450" y="310" as="targetPoint" />
          </mxGeometry>
        </mxCell>
        <mxCell id="acnz2K3QiTht51wy8JcN-7" value="value" style="rhombus;whiteSpace=wrap;html=1;" parent="1" vertex="1">
          <mxGeometry x="100" y="290" width="80" height="60" as="geometry" />
        </mxCell>
        <mxCell id="acnz2K3QiTht51wy8JcN-8" value="" style="endArrow=none;html=1;rounded=0;exitX=0.5;exitY=1;exitDx=0;exitDy=0;" parent="1" source="acnz2K3QiTht51wy8JcN-7" edge="1">
          <mxGeometry width="50" height="50" relative="1" as="geometry">
            <mxPoint x="320" y="380" as="sourcePoint" />
            <mxPoint x="140" y="460" as="targetPoint" />
          </mxGeometry>
        </mxCell>
        <mxCell id="acnz2K3QiTht51wy8JcN-9" value="" style="endArrow=none;html=1;rounded=0;" parent="1" target="acnz2K3QiTht51wy8JcN-17" edge="1">
          <mxGeometry width="50" height="50" relative="1" as="geometry">
            <mxPoint x="140" y="370" as="sourcePoint" />
            <mxPoint x="440" y="410" as="targetPoint" />
            <Array as="points">
              <mxPoint x="320" y="370" />
              <mxPoint x="670" y="370" />
            </Array>
          </mxGeometry>
        </mxCell>
        <mxCell id="acnz2K3QiTht51wy8JcN-10" value="" style="endArrow=none;html=1;rounded=0;" parent="1" target="acnz2K3QiTht51wy8JcN-19" edge="1">
          <mxGeometry width="50" height="50" relative="1" as="geometry">
            <mxPoint x="140" y="400" as="sourcePoint" />
            <mxPoint x="410" y="430" as="targetPoint" />
            <Array as="points">
              <mxPoint x="530" y="400" />
            </Array>
          </mxGeometry>
        </mxCell>
        <mxCell id="acnz2K3QiTht51wy8JcN-11" value="" style="endArrow=none;html=1;rounded=0;entryX=0.5;entryY=0;entryDx=0;entryDy=0;" parent="1" target="acnz2K3QiTht51wy8JcN-20" edge="1">
          <mxGeometry width="50" height="50" relative="1" as="geometry">
            <mxPoint x="140" y="430" as="sourcePoint" />
            <mxPoint x="320" y="470" as="targetPoint" />
            <Array as="points">
              <mxPoint x="340" y="430" />
            </Array>
          </mxGeometry>
        </mxCell>
        <mxCell id="acnz2K3QiTht51wy8JcN-12" value="" style="endArrow=none;html=1;rounded=0;" parent="1" edge="1">
          <mxGeometry width="50" height="50" relative="1" as="geometry">
            <mxPoint x="140" y="460" as="sourcePoint" />
            <mxPoint x="230" y="570" as="targetPoint" />
            <Array as="points">
              <mxPoint x="230" y="460" />
            </Array>
          </mxGeometry>
        </mxCell>
        <mxCell id="acnz2K3QiTht51wy8JcN-13" value="1" style="text;html=1;align=center;verticalAlign=middle;resizable=0;points=[];autosize=1;strokeColor=none;fillColor=none;" parent="1" vertex="1">
          <mxGeometry x="140" y="340" width="30" height="30" as="geometry" />
        </mxCell>
        <mxCell id="acnz2K3QiTht51wy8JcN-14" value="2" style="text;html=1;align=center;verticalAlign=middle;resizable=0;points=[];autosize=1;strokeColor=none;fillColor=none;" parent="1" vertex="1">
          <mxGeometry x="140" y="370" width="30" height="30" as="geometry" />
        </mxCell>
        <mxCell id="acnz2K3QiTht51wy8JcN-15" value="3" style="text;html=1;align=center;verticalAlign=middle;resizable=0;points=[];autosize=1;strokeColor=none;fillColor=none;" parent="1" vertex="1">
          <mxGeometry x="140" y="400" width="30" height="30" as="geometry" />
        </mxCell>
        <mxCell id="acnz2K3QiTht51wy8JcN-16" value="0" style="text;html=1;align=center;verticalAlign=middle;resizable=0;points=[];autosize=1;strokeColor=none;fillColor=none;" parent="1" vertex="1">
          <mxGeometry x="140" y="430" width="30" height="30" as="geometry" />
        </mxCell>
        <mxCell id="acnz2K3QiTht51wy8JcN-17" value="help" style="shape=process;whiteSpace=wrap;html=1;backgroundOutline=1;" parent="1" vertex="1">
          <mxGeometry x="630" y="490" width="80" height="40" as="geometry" />
        </mxCell>
        <mxCell id="acnz2K3QiTht51wy8JcN-19" value="run_With_File_Input()" style="shape=process;whiteSpace=wrap;html=1;backgroundOutline=1;size=0.08333333333333333;" parent="1" vertex="1">
          <mxGeometry x="450" y="490" width="160" height="40" as="geometry" />
        </mxCell>
        <mxCell id="acnz2K3QiTht51wy8JcN-20" value="run_With_Console_Input()" style="shape=process;whiteSpace=wrap;html=1;backgroundOutline=1;size=0.05555555555555555;" parent="1" vertex="1">
          <mxGeometry x="250" y="490" width="180" height="40" as="geometry" />
        </mxCell>
        <mxCell id="acnz2K3QiTht51wy8JcN-21" value="" style="endArrow=none;html=1;rounded=0;entryX=0.005;entryY=1.024;entryDx=0;entryDy=0;entryPerimeter=0;exitX=0.5;exitY=1;exitDx=0;exitDy=0;" parent="1" source="acnz2K3QiTht51wy8JcN-23" target="acnz2K3QiTht51wy8JcN-16" edge="1">
          <mxGeometry width="50" height="50" relative="1" as="geometry">
            <mxPoint x="140" y="490" as="sourcePoint" />
            <mxPoint x="360" y="420" as="targetPoint" />
          </mxGeometry>
        </mxCell>
        <mxCell id="acnz2K3QiTht51wy8JcN-23" value="вывод: incorrect cey" style="shape=parallelogram;perimeter=parallelogramPerimeter;whiteSpace=wrap;html=1;fixedSize=1;direction=west;" parent="1" vertex="1">
          <mxGeometry x="70" y="490" width="140" height="60" as="geometry" />
        </mxCell>
        <mxCell id="acnz2K3QiTht51wy8JcN-25" value="" style="endArrow=none;html=1;rounded=0;entryX=0.5;entryY=1;entryDx=0;entryDy=0;" parent="1" target="acnz2K3QiTht51wy8JcN-17" edge="1">
          <mxGeometry width="50" height="50" relative="1" as="geometry">
            <mxPoint x="140" y="570" as="sourcePoint" />
            <mxPoint x="350" y="300" as="targetPoint" />
            <Array as="points">
              <mxPoint x="670" y="570" />
            </Array>
          </mxGeometry>
        </mxCell>
        <mxCell id="acnz2K3QiTht51wy8JcN-26" value="" style="endArrow=none;html=1;rounded=0;exitX=0.5;exitY=1;exitDx=0;exitDy=0;" parent="1" source="acnz2K3QiTht51wy8JcN-20" edge="1">
          <mxGeometry width="50" height="50" relative="1" as="geometry">
            <mxPoint x="300" y="350" as="sourcePoint" />
            <mxPoint x="340" y="570" as="targetPoint" />
          </mxGeometry>
        </mxCell>
        <mxCell id="acnz2K3QiTht51wy8JcN-28" value="" style="endArrow=none;html=1;rounded=0;exitX=0.5;exitY=1;exitDx=0;exitDy=0;" parent="1" source="acnz2K3QiTht51wy8JcN-19" edge="1">
          <mxGeometry width="50" height="50" relative="1" as="geometry">
            <mxPoint x="300" y="350" as="sourcePoint" />
            <mxPoint x="530" y="570" as="targetPoint" />
          </mxGeometry>
        </mxCell>
        <mxCell id="acnz2K3QiTht51wy8JcN-29" value="" style="endArrow=none;html=1;rounded=0;exitX=0.5;exitY=0;exitDx=0;exitDy=0;entryX=0.5;entryY=0;entryDx=0;entryDy=0;" parent="1" source="X-Kxx56eb_eyo0RnOTDv-1" target="acnz2K3QiTht51wy8JcN-32" edge="1">
          <mxGeometry width="50" height="50" relative="1" as="geometry">
            <mxPoint x="300" y="350" as="sourcePoint" />
            <mxPoint x="140" y="590" as="targetPoint" />
          </mxGeometry>
        </mxCell>
        <mxCell id="acnz2K3QiTht51wy8JcN-32" value="value != 0" style="rhombus;whiteSpace=wrap;html=1;" parent="1" vertex="1">
          <mxGeometry x="100" y="660" width="80" height="60" as="geometry" />
        </mxCell>
        <mxCell id="acnz2K3QiTht51wy8JcN-34" value="" style="endArrow=classic;html=1;rounded=0;exitX=1;exitY=0.5;exitDx=0;exitDy=0;" parent="1" source="acnz2K3QiTht51wy8JcN-32" edge="1">
          <mxGeometry width="50" height="50" relative="1" as="geometry">
            <mxPoint x="300" y="370" as="sourcePoint" />
            <mxPoint x="140" y="60" as="targetPoint" />
            <Array as="points">
              <mxPoint x="730" y="690" />
              <mxPoint x="730" y="60" />
            </Array>
          </mxGeometry>
        </mxCell>
        <mxCell id="acnz2K3QiTht51wy8JcN-35" value="" style="endArrow=none;html=1;rounded=0;exitX=0.5;exitY=1;exitDx=0;exitDy=0;" parent="1" source="acnz2K3QiTht51wy8JcN-32" target="acnz2K3QiTht51wy8JcN-36" edge="1">
          <mxGeometry width="50" height="50" relative="1" as="geometry">
            <mxPoint x="450" y="520" as="sourcePoint" />
            <mxPoint x="140" y="760" as="targetPoint" />
          </mxGeometry>
        </mxCell>
        <mxCell id="acnz2K3QiTht51wy8JcN-36" value="menu&lt;br style=&quot;border-color: var(--border-color);&quot;&gt;конец" style="rounded=1;whiteSpace=wrap;html=1;" parent="1" vertex="1">
          <mxGeometry x="80" y="740" width="120" height="40" as="geometry" />
        </mxCell>
        <mxCell id="yaw6lklJcpAuil3reAUE-2" value="" style="endArrow=none;html=1;rounded=0;entryX=0.5;entryY=1;entryDx=0;entryDy=0;exitX=0.5;exitY=0;exitDx=0;exitDy=0;" parent="1" source="acnz2K3QiTht51wy8JcN-4" target="yaw6lklJcpAuil3reAUE-1" edge="1">
          <mxGeometry width="50" height="50" relative="1" as="geometry">
            <mxPoint x="140" y="220" as="sourcePoint" />
            <mxPoint x="140" y="40" as="targetPoint" />
          </mxGeometry>
        </mxCell>
        <mxCell id="yaw6lklJcpAuil3reAUE-1" value="&lt;div style=&quot;text-align: center;&quot;&gt;&amp;nbsp; &amp;nbsp; &amp;nbsp; &amp;nbsp; &amp;nbsp; вывод:&amp;nbsp; &amp;nbsp; &amp;nbsp; &amp;nbsp; &amp;nbsp;&amp;nbsp;&lt;/div&gt;&lt;div style=&quot;&quot;&gt;&amp;nbsp; &amp;nbsp; &amp;nbsp; &amp;nbsp; &amp;nbsp; There are some options:&lt;/div&gt;&lt;div style=&quot;&quot;&gt;&amp;nbsp; &amp;nbsp; &amp;nbsp; &amp;nbsp; &amp;nbsp; 1 - for HELP&lt;/div&gt;&lt;div style=&quot;&quot;&gt;&amp;nbsp; &amp;nbsp; &amp;nbsp; &amp;nbsp; &amp;nbsp; 2 - for RUN program with source from file&lt;/div&gt;&lt;div style=&quot;&quot;&gt;&amp;nbsp; &amp;nbsp; &amp;nbsp; &amp;nbsp; &amp;nbsp; 3 - for RUN program with type in console&lt;/div&gt;&lt;div style=&quot;&quot;&gt;&amp;nbsp; &amp;nbsp; &amp;nbsp; &amp;nbsp; &amp;nbsp; 0 - for EXIT program&lt;/div&gt;&lt;div style=&quot;&quot;&gt;&lt;br&gt;&lt;/div&gt;&lt;div style=&quot;&quot;&gt;&amp;nbsp; &amp;nbsp; &amp;nbsp; &amp;nbsp; &amp;nbsp; Enter option:&lt;/div&gt;" style="shape=parallelogram;perimeter=parallelogramPerimeter;whiteSpace=wrap;html=1;fixedSize=1;size=30;align=left;" parent="1" vertex="1">
          <mxGeometry x="2.5" y="80" width="275" height="120" as="geometry" />
        </mxCell>
        <mxCell id="X-Kxx56eb_eyo0RnOTDv-2" value="" style="endArrow=none;html=1;rounded=0;exitX=0.5;exitY=0;exitDx=0;exitDy=0;entryX=0.5;entryY=0;entryDx=0;entryDy=0;" edge="1" parent="1" source="acnz2K3QiTht51wy8JcN-23" target="X-Kxx56eb_eyo0RnOTDv-1">
          <mxGeometry width="50" height="50" relative="1" as="geometry">
            <mxPoint x="140" y="550" as="sourcePoint" />
            <mxPoint x="140" y="660" as="targetPoint" />
          </mxGeometry>
        </mxCell>
        <mxCell id="X-Kxx56eb_eyo0RnOTDv-1" value="вывод:&amp;nbsp;&lt;br&gt;Press ENTER to continue" style="shape=parallelogram;perimeter=parallelogramPerimeter;whiteSpace=wrap;html=1;fixedSize=1;" vertex="1" parent="1">
          <mxGeometry x="55" y="590" width="170" height="50" as="geometry" />
        </mxCell>
      </root>
    </mxGraphModel>
  </diagram>
  <diagram id="Ei4FkdHGburw4WCGmRnH" name="help">
    <mxGraphModel dx="804" dy="670" grid="1" gridSize="10" guides="1" tooltips="1" connect="1" arrows="1" fold="1" page="1" pageScale="1" pageWidth="827" pageHeight="1169" math="0" shadow="0">
      <root>
        <mxCell id="0" />
        <mxCell id="1" parent="0" />
        <mxCell id="OnFJNEOFHw67pscS8l2s-1" value="help()&lt;br&gt;начало" style="rounded=1;whiteSpace=wrap;html=1;" parent="1" vertex="1">
          <mxGeometry x="220" width="120" height="40" as="geometry" />
        </mxCell>
        <mxCell id="UL9Z-byU6-jTjIjwJSf2-1" value="" style="endArrow=none;html=1;rounded=0;entryX=0.5;entryY=1;entryDx=0;entryDy=0;exitX=0.5;exitY=0;exitDx=0;exitDy=0;" parent="1" source="UL9Z-byU6-jTjIjwJSf2-2" target="OnFJNEOFHw67pscS8l2s-1" edge="1">
          <mxGeometry width="50" height="50" relative="1" as="geometry">
            <mxPoint x="220" y="80" as="sourcePoint" />
            <mxPoint x="370" y="320" as="targetPoint" />
          </mxGeometry>
        </mxCell>
        <mxCell id="UL9Z-byU6-jTjIjwJSf2-2" value="&lt;div&gt;&lt;span style=&quot;white-space: pre;&quot;&gt;&#x9;&lt;/span&gt;PROGRAM DESCRIPTION&lt;/div&gt;&lt;div&gt;&lt;br&gt;&lt;/div&gt;&lt;div&gt;&lt;span style=&quot;white-space: pre;&quot;&gt;&#x9;&lt;/span&gt;This program provides functionality for processing and modifying text files.&lt;/div&gt;&lt;div&gt;&lt;span style=&quot;white-space: pre;&quot;&gt;&#x9;&lt;/span&gt;It allows you to replace inline comments in the text, format the output, and save the results to a file.&lt;/div&gt;&lt;div&gt;&lt;br&gt;&lt;/div&gt;&lt;div&gt;&lt;span style=&quot;white-space: pre;&quot;&gt;&#x9;&lt;/span&gt;OPTIONS:&lt;/div&gt;&lt;div&gt;&lt;span style=&quot;white-space: pre;&quot;&gt;&#x9;&lt;/span&gt;1 - HELP: Display this help message.&lt;/div&gt;&lt;div&gt;&lt;span style=&quot;white-space: pre;&quot;&gt;&#x9;&lt;/span&gt;2 - for RUN program with source from file: Execute the program with input read from a file.&lt;/div&gt;&lt;div&gt;&lt;span style=&quot;white-space: pre;&quot;&gt;&#x9;&lt;/span&gt;3 - for RUN program with type in console: Execute the program with input entered interactively in &lt;span style=&quot;white-space: pre;&quot;&gt;&#x9;&lt;/span&gt;the console.&lt;/div&gt;&lt;div&gt;&lt;span style=&quot;white-space: pre;&quot;&gt;&#x9;&lt;/span&gt;0 - EXIT program: Exit the program.&lt;/div&gt;&lt;div&gt;&lt;br&gt;&lt;/div&gt;&lt;div&gt;&lt;span style=&quot;white-space: pre;&quot;&gt;&#x9;&lt;/span&gt;USAGE:&lt;/div&gt;&lt;div&gt;&lt;span style=&quot;white-space: pre;&quot;&gt;&#x9;&lt;/span&gt;- Choose the appropriate option from the main menu.&lt;/div&gt;&lt;div&gt;&lt;span style=&quot;white-space: pre;&quot;&gt;&#x9;&lt;/span&gt;-&amp;nbsp;For &#39;RUN program with source from file&#39;, provide the filename when prompted.&lt;/div&gt;&lt;div&gt;&lt;span style=&quot;white-space: pre;&quot;&gt;&#x9;&lt;/span&gt;- For &#39;for RUN program with type in console&#39;, input text interactively until finished.&lt;/div&gt;&lt;div&gt;&lt;span style=&quot;white-space: pre;&quot;&gt;&#x9;&lt;/span&gt;-&amp;nbsp;Results can be saved to a file upon request.&lt;/div&gt;&lt;div&gt;&lt;br&gt;&lt;/div&gt;&lt;div&gt;&lt;span style=&quot;white-space: pre;&quot;&gt;&#x9;&lt;/span&gt;NOTE:&lt;/div&gt;&lt;div&gt;&lt;span style=&quot;white-space: pre;&quot;&gt;&#x9;&lt;/span&gt;To end text input in console mode, press Ctrl+D (UNIX-like systems) or Ctrl+Z (Windows).&lt;/div&gt;&lt;div&gt;&lt;span style=&quot;white-space: pre;&quot;&gt;&#x9;&lt;/span&gt;Press ENTER to continue&lt;/div&gt;" style="shape=parallelogram;perimeter=parallelogramPerimeter;whiteSpace=wrap;html=1;fixedSize=1;size=20;align=left;" parent="1" vertex="1">
          <mxGeometry y="60" width="560" height="330" as="geometry" />
        </mxCell>
        <mxCell id="UWDEMbWcmgqzyULga6tt-1" value="" style="endArrow=none;html=1;rounded=0;exitX=0.5;exitY=1;exitDx=0;exitDy=0;entryX=0.5;entryY=0;entryDx=0;entryDy=0;" parent="1" source="UL9Z-byU6-jTjIjwJSf2-2" target="UWDEMbWcmgqzyULga6tt-2" edge="1">
          <mxGeometry width="50" height="50" relative="1" as="geometry">
            <mxPoint x="320" y="370" as="sourcePoint" />
            <mxPoint x="280" y="420" as="targetPoint" />
          </mxGeometry>
        </mxCell>
        <mxCell id="UWDEMbWcmgqzyULga6tt-2" value="help&lt;br&gt;конец" style="rounded=1;whiteSpace=wrap;html=1;" parent="1" vertex="1">
          <mxGeometry x="220" y="420" width="120" height="60" as="geometry" />
        </mxCell>
      </root>
    </mxGraphModel>
  </diagram>
  <diagram id="wPX8HYljV0h76wonwHxm" name="run_With_File_Input">
    <mxGraphModel dx="804" dy="670" grid="1" gridSize="10" guides="1" tooltips="1" connect="1" arrows="1" fold="1" page="1" pageScale="1" pageWidth="827" pageHeight="1169" math="0" shadow="0">
      <root>
        <mxCell id="0" />
        <mxCell id="1" parent="0" />
        <mxCell id="509l7lUJBeLAeSTbMWo7-1" value="начало&lt;br&gt;run_With_File_Input()" style="rounded=1;whiteSpace=wrap;html=1;" parent="1" vertex="1">
          <mxGeometry x="240" width="160" height="60" as="geometry" />
        </mxCell>
        <mxCell id="509l7lUJBeLAeSTbMWo7-2" value="" style="endArrow=none;html=1;rounded=0;entryX=0.5;entryY=1;entryDx=0;entryDy=0;exitX=0.5;exitY=0;exitDx=0;exitDy=0;" parent="1" source="HlHmY9jsIhVzV1wtOuOo-1" target="509l7lUJBeLAeSTbMWo7-1" edge="1">
          <mxGeometry width="50" height="50" relative="1" as="geometry">
            <mxPoint x="311.78" y="80" as="sourcePoint" />
            <mxPoint x="431.78" y="60" as="targetPoint" />
          </mxGeometry>
        </mxCell>
        <mxCell id="509l7lUJBeLAeSTbMWo7-4" value="ввод: input_file_name" style="shape=parallelogram;perimeter=parallelogramPerimeter;whiteSpace=wrap;html=1;fixedSize=1;" parent="1" vertex="1">
          <mxGeometry x="240" y="220" width="160" height="60" as="geometry" />
        </mxCell>
        <mxCell id="TewMYpn0lzScVYDdC2eG-1" value="" style="endArrow=none;html=1;rounded=0;exitX=0.5;exitY=1;exitDx=0;exitDy=0;" parent="1" source="509l7lUJBeLAeSTbMWo7-4" target="TewMYpn0lzScVYDdC2eG-3" edge="1">
          <mxGeometry width="50" height="50" relative="1" as="geometry">
            <mxPoint x="386.5" y="250" as="sourcePoint" />
            <mxPoint x="316.5" y="300" as="targetPoint" />
          </mxGeometry>
        </mxCell>
        <mxCell id="TewMYpn0lzScVYDdC2eG-3" value="len = strlen(input_file_name);" style="rounded=0;whiteSpace=wrap;html=1;" parent="1" vertex="1">
          <mxGeometry x="227.5" y="300" width="185" height="30" as="geometry" />
        </mxCell>
        <mxCell id="TewMYpn0lzScVYDdC2eG-4" value="" style="endArrow=none;html=1;rounded=0;exitX=0.5;exitY=1;exitDx=0;exitDy=0;" parent="1" source="TewMYpn0lzScVYDdC2eG-3" target="TewMYpn0lzScVYDdC2eG-5" edge="1">
          <mxGeometry width="50" height="50" relative="1" as="geometry">
            <mxPoint x="386.5" y="220" as="sourcePoint" />
            <mxPoint x="316.5" y="350" as="targetPoint" />
          </mxGeometry>
        </mxCell>
        <mxCell id="TewMYpn0lzScVYDdC2eG-5" value="input_file_name[len - 1] = &#39;\0&#39;;" style="rounded=0;whiteSpace=wrap;html=1;" parent="1" vertex="1">
          <mxGeometry x="230" y="350" width="180" height="30" as="geometry" />
        </mxCell>
        <mxCell id="TewMYpn0lzScVYDdC2eG-7" value="file !=NULL" style="rhombus;whiteSpace=wrap;html=1;" parent="1" vertex="1">
          <mxGeometry x="255" y="450" width="130" height="60" as="geometry" />
        </mxCell>
        <mxCell id="TewMYpn0lzScVYDdC2eG-9" value="" style="endArrow=none;html=1;rounded=0;entryX=0.5;entryY=1;entryDx=0;entryDy=0;exitX=0.5;exitY=0;exitDx=0;exitDy=0;" parent="1" source="TewMYpn0lzScVYDdC2eG-7" target="TewMYpn0lzScVYDdC2eG-5" edge="1">
          <mxGeometry width="50" height="50" relative="1" as="geometry">
            <mxPoint x="326.5" y="470" as="sourcePoint" />
            <mxPoint x="316.25" y="430" as="targetPoint" />
          </mxGeometry>
        </mxCell>
        <mxCell id="TewMYpn0lzScVYDdC2eG-10" value="" style="endArrow=none;html=1;rounded=0;entryX=1;entryY=0.5;entryDx=0;entryDy=0;exitX=0.5;exitY=0;exitDx=0;exitDy=0;" parent="1" source="TewMYpn0lzScVYDdC2eG-14" target="TewMYpn0lzScVYDdC2eG-7" edge="1">
          <mxGeometry width="50" height="50" relative="1" as="geometry">
            <mxPoint x="456.5" y="550" as="sourcePoint" />
            <mxPoint x="436.5" y="500" as="targetPoint" />
            <Array as="points">
              <mxPoint x="510" y="480" />
            </Array>
          </mxGeometry>
        </mxCell>
        <mxCell id="TewMYpn0lzScVYDdC2eG-11" value="да" style="text;html=1;align=center;verticalAlign=middle;resizable=0;points=[];autosize=1;strokeColor=none;fillColor=none;" parent="1" vertex="1">
          <mxGeometry x="380" y="450" width="40" height="30" as="geometry" />
        </mxCell>
        <mxCell id="TewMYpn0lzScVYDdC2eG-12" value="" style="endArrow=none;html=1;rounded=0;entryX=0.5;entryY=1;entryDx=0;entryDy=0;exitX=0.5;exitY=0;exitDx=0;exitDy=0;" parent="1" source="TewMYpn0lzScVYDdC2eG-25" target="TewMYpn0lzScVYDdC2eG-7" edge="1">
          <mxGeometry width="50" height="50" relative="1" as="geometry">
            <mxPoint x="316.5" y="560" as="sourcePoint" />
            <mxPoint x="436.5" y="500" as="targetPoint" />
          </mxGeometry>
        </mxCell>
        <mxCell id="TewMYpn0lzScVYDdC2eG-14" value="text_processing(file);" style="shape=process;whiteSpace=wrap;html=1;backgroundOutline=1;size=0.038461538461538464;" parent="1" vertex="1">
          <mxGeometry x="400" y="520" width="220" height="50" as="geometry" />
        </mxCell>
        <mxCell id="TewMYpn0lzScVYDdC2eG-15" value="fclose(file) == EOF" style="rhombus;whiteSpace=wrap;html=1;" parent="1" vertex="1">
          <mxGeometry x="430" y="600" width="160" height="60" as="geometry" />
        </mxCell>
        <mxCell id="TewMYpn0lzScVYDdC2eG-16" value="" style="endArrow=none;html=1;rounded=0;entryX=0.5;entryY=1;entryDx=0;entryDy=0;exitX=0.5;exitY=0;exitDx=0;exitDy=0;" parent="1" source="TewMYpn0lzScVYDdC2eG-15" target="TewMYpn0lzScVYDdC2eG-14" edge="1">
          <mxGeometry width="50" height="50" relative="1" as="geometry">
            <mxPoint x="386.5" y="550" as="sourcePoint" />
            <mxPoint x="436.5" y="500" as="targetPoint" />
          </mxGeometry>
        </mxCell>
        <mxCell id="TewMYpn0lzScVYDdC2eG-17" value="" style="endArrow=none;html=1;rounded=0;entryX=1;entryY=0.5;entryDx=0;entryDy=0;exitX=0.5;exitY=0;exitDx=0;exitDy=0;" parent="1" source="TewMYpn0lzScVYDdC2eG-19" target="TewMYpn0lzScVYDdC2eG-15" edge="1">
          <mxGeometry width="50" height="50" relative="1" as="geometry">
            <mxPoint x="636.5" y="670" as="sourcePoint" />
            <mxPoint x="436.5" y="620" as="targetPoint" />
            <Array as="points">
              <mxPoint x="666.5" y="630" />
            </Array>
          </mxGeometry>
        </mxCell>
        <mxCell id="TewMYpn0lzScVYDdC2eG-18" value="да" style="text;html=1;align=center;verticalAlign=middle;resizable=0;points=[];autosize=1;strokeColor=none;fillColor=none;" parent="1" vertex="1">
          <mxGeometry x="596.5" y="600" width="40" height="30" as="geometry" />
        </mxCell>
        <mxCell id="TewMYpn0lzScVYDdC2eG-19" value="вывод:&lt;br&gt;&lt;div style=&quot;text-align: left;&quot;&gt;&lt;span style=&quot;background-color: initial;&quot;&gt;Error closing input file!&lt;/span&gt;&lt;/div&gt;&lt;div style=&quot;text-align: left;&quot;&gt;&lt;span style=&quot;background-color: initial;&quot;&gt;Try again&lt;/span&gt;&lt;/div&gt;" style="shape=parallelogram;perimeter=parallelogramPerimeter;whiteSpace=wrap;html=1;fixedSize=1;" parent="1" vertex="1">
          <mxGeometry x="586.5" y="660" width="160" height="60" as="geometry" />
        </mxCell>
        <mxCell id="TewMYpn0lzScVYDdC2eG-22" value="" style="endArrow=none;html=1;rounded=0;entryX=0.5;entryY=1;entryDx=0;entryDy=0;" parent="1" target="TewMYpn0lzScVYDdC2eG-15" edge="1">
          <mxGeometry width="50" height="50" relative="1" as="geometry">
            <mxPoint x="510" y="740" as="sourcePoint" />
            <mxPoint x="510" y="720" as="targetPoint" />
          </mxGeometry>
        </mxCell>
        <mxCell id="TewMYpn0lzScVYDdC2eG-23" value="" style="endArrow=none;html=1;rounded=0;entryX=0.5;entryY=1;entryDx=0;entryDy=0;" parent="1" target="TewMYpn0lzScVYDdC2eG-19" edge="1">
          <mxGeometry width="50" height="50" relative="1" as="geometry">
            <mxPoint x="320" y="740" as="sourcePoint" />
            <mxPoint x="596.5" y="590" as="targetPoint" />
            <Array as="points">
              <mxPoint x="666.5" y="740" />
            </Array>
          </mxGeometry>
        </mxCell>
        <mxCell id="TewMYpn0lzScVYDdC2eG-25" value="Input opening error&lt;br&gt;Make sure the file exists" style="shape=parallelogram;perimeter=parallelogramPerimeter;whiteSpace=wrap;html=1;fixedSize=1;" parent="1" vertex="1">
          <mxGeometry x="240" y="660" width="160" height="60" as="geometry" />
        </mxCell>
        <mxCell id="TewMYpn0lzScVYDdC2eG-26" value="" style="endArrow=none;html=1;rounded=0;entryX=0.5;entryY=1;entryDx=0;entryDy=0;exitX=0.5;exitY=0;exitDx=0;exitDy=0;" parent="1" source="TewMYpn0lzScVYDdC2eG-27" target="TewMYpn0lzScVYDdC2eG-25" edge="1">
          <mxGeometry width="50" height="50" relative="1" as="geometry">
            <mxPoint x="316.5" y="760" as="sourcePoint" />
            <mxPoint x="566.5" y="660" as="targetPoint" />
          </mxGeometry>
        </mxCell>
        <mxCell id="TewMYpn0lzScVYDdC2eG-27" value="конец&lt;br&gt;run_With_File_Input" style="rounded=1;whiteSpace=wrap;html=1;" parent="1" vertex="1">
          <mxGeometry x="260" y="760" width="120" height="60" as="geometry" />
        </mxCell>
        <mxCell id="HlHmY9jsIhVzV1wtOuOo-1" value="file, input_file_name[], len" style="rounded=0;whiteSpace=wrap;html=1;" parent="1" vertex="1">
          <mxGeometry x="220" y="80" width="200" height="40" as="geometry" />
        </mxCell>
        <mxCell id="HlHmY9jsIhVzV1wtOuOo-2" value="" style="endArrow=none;html=1;rounded=0;exitX=0.5;exitY=0;exitDx=0;exitDy=0;entryX=0.5;entryY=1;entryDx=0;entryDy=0;" parent="1" source="509l7lUJBeLAeSTbMWo7-4" target="ngkMQBC9OJUZQWuwJcU0-1" edge="1">
          <mxGeometry width="50" height="50" relative="1" as="geometry">
            <mxPoint x="371.14" y="210" as="sourcePoint" />
            <mxPoint x="320" y="200.0000000000001" as="targetPoint" />
          </mxGeometry>
        </mxCell>
        <mxCell id="Ml30VFT-Tap38onfgPQO-2" value="file = fopen(input_file_name, &quot;r&quot;)" style="rounded=0;whiteSpace=wrap;html=1;" parent="1" vertex="1">
          <mxGeometry x="230" y="400" width="180" height="30" as="geometry" />
        </mxCell>
        <mxCell id="ngkMQBC9OJUZQWuwJcU0-1" value="вывод:&lt;br&gt;Enter your filename:&amp;nbsp;" style="shape=parallelogram;perimeter=parallelogramPerimeter;whiteSpace=wrap;html=1;fixedSize=1;" parent="1" vertex="1">
          <mxGeometry x="250" y="140" width="140" height="60" as="geometry" />
        </mxCell>
        <mxCell id="ngkMQBC9OJUZQWuwJcU0-2" value="" style="endArrow=none;html=1;rounded=0;entryX=0.5;entryY=1;entryDx=0;entryDy=0;exitX=0.5;exitY=0;exitDx=0;exitDy=0;" parent="1" source="ngkMQBC9OJUZQWuwJcU0-1" target="HlHmY9jsIhVzV1wtOuOo-1" edge="1">
          <mxGeometry width="50" height="50" relative="1" as="geometry">
            <mxPoint x="510" y="390" as="sourcePoint" />
            <mxPoint x="560" y="340" as="targetPoint" />
          </mxGeometry>
        </mxCell>
      </root>
    </mxGraphModel>
  </diagram>
  <diagram id="lLg6vVA6bAAAMr-M3kvV" name="text_proccessing">
    <mxGraphModel dx="804" dy="670" grid="1" gridSize="10" guides="1" tooltips="1" connect="1" arrows="1" fold="1" page="1" pageScale="1" pageWidth="827" pageHeight="1169" math="0" shadow="0">
      <root>
        <mxCell id="0" />
        <mxCell id="1" parent="0" />
        <mxCell id="g2X5y5JfjCYNQGWaVSiq-1" value="начало&lt;br&gt;text_proccessing(FILE *file)" style="rounded=1;whiteSpace=wrap;html=1;" parent="1" vertex="1">
          <mxGeometry x="160" y="40" width="270" height="50" as="geometry" />
        </mxCell>
        <mxCell id="pP0qypePDnoLlhU_P4UZ-1" value="file -&amp;nbsp;&lt;span style=&quot;font-size: medium;&quot;&gt;&lt;/span&gt;Файл для чтения пользователем или файл ввода&lt;br&gt;из кнсоли &lt;span style=&quot;font-size: 12pt; font-family: &amp;quot;Times New Roman&amp;quot;, serif;&quot; lang=&quot;EN-US&quot;&gt;stdin&lt;/span&gt;&lt;span style=&quot;font-size: medium;&quot;&gt;&lt;/span&gt;" style="strokeWidth=2;html=1;shape=mxgraph.flowchart.annotation_2;align=left;labelPosition=right;pointerEvents=1;" parent="1" vertex="1">
          <mxGeometry x="470" y="43.75" width="50" height="42.5" as="geometry" />
        </mxCell>
        <mxCell id="pP0qypePDnoLlhU_P4UZ-2" value="" style="endArrow=none;dashed=1;html=1;dashPattern=1 3;strokeWidth=2;rounded=0;entryX=0;entryY=0.5;entryDx=0;entryDy=0;entryPerimeter=0;exitX=1;exitY=0.5;exitDx=0;exitDy=0;" parent="1" source="g2X5y5JfjCYNQGWaVSiq-1" target="pP0qypePDnoLlhU_P4UZ-1" edge="1">
          <mxGeometry width="50" height="50" relative="1" as="geometry">
            <mxPoint x="390" y="370" as="sourcePoint" />
            <mxPoint x="440" y="320" as="targetPoint" />
          </mxGeometry>
        </mxCell>
        <mxCell id="pP0qypePDnoLlhU_P4UZ-4" value="" style="endArrow=none;html=1;rounded=0;entryX=0.5;entryY=1;entryDx=0;entryDy=0;exitX=0.5;exitY=0;exitDx=0;exitDy=0;" parent="1" source="pP0qypePDnoLlhU_P4UZ-7" target="g2X5y5JfjCYNQGWaVSiq-1" edge="1">
          <mxGeometry width="50" height="50" relative="1" as="geometry">
            <mxPoint x="295" y="140" as="sourcePoint" />
            <mxPoint x="440" y="320" as="targetPoint" />
          </mxGeometry>
        </mxCell>
        <mxCell id="pP0qypePDnoLlhU_P4UZ-5" value="save_file(text, row_numbers);" style="shape=process;whiteSpace=wrap;html=1;backgroundOutline=1;size=0.05813953488372093;" parent="1" vertex="1">
          <mxGeometry x="187.5" y="290" width="215" height="40" as="geometry" />
        </mxCell>
        <mxCell id="pP0qypePDnoLlhU_P4UZ-6" value="write_text(text, outfile, row_numbers);" style="shape=process;whiteSpace=wrap;html=1;backgroundOutline=1;size=0.047619047619047616;" parent="1" vertex="1">
          <mxGeometry x="190" y="230" width="210" height="40" as="geometry" />
        </mxCell>
        <mxCell id="pP0qypePDnoLlhU_P4UZ-7" value="comment_replace(text, &amp;amp;row_numbers, rows_lens)" style="shape=process;whiteSpace=wrap;html=1;backgroundOutline=1;size=0.05813953488372093;" parent="1" vertex="1">
          <mxGeometry x="187.5" y="170" width="215" height="40" as="geometry" />
        </mxCell>
        <mxCell id="pP0qypePDnoLlhU_P4UZ-8" value="" style="endArrow=none;html=1;rounded=0;entryX=0.5;entryY=1;entryDx=0;entryDy=0;exitX=0.5;exitY=0;exitDx=0;exitDy=0;" parent="1" source="pP0qypePDnoLlhU_P4UZ-6" target="pP0qypePDnoLlhU_P4UZ-7" edge="1">
          <mxGeometry width="50" height="50" relative="1" as="geometry">
            <mxPoint x="295" y="260" as="sourcePoint" />
            <mxPoint x="440" y="380" as="targetPoint" />
          </mxGeometry>
        </mxCell>
        <mxCell id="pP0qypePDnoLlhU_P4UZ-9" value="" style="endArrow=none;html=1;rounded=0;entryX=0.5;entryY=1;entryDx=0;entryDy=0;exitX=0.5;exitY=0;exitDx=0;exitDy=0;" parent="1" source="pP0qypePDnoLlhU_P4UZ-5" target="pP0qypePDnoLlhU_P4UZ-6" edge="1">
          <mxGeometry width="50" height="50" relative="1" as="geometry">
            <mxPoint x="390" y="430" as="sourcePoint" />
            <mxPoint x="440" y="380" as="targetPoint" />
          </mxGeometry>
        </mxCell>
        <mxCell id="pP0qypePDnoLlhU_P4UZ-10" value="" style="endArrow=none;html=1;rounded=0;entryX=0.5;entryY=1;entryDx=0;entryDy=0;exitX=0.5;exitY=0;exitDx=0;exitDy=0;" parent="1" source="pP0qypePDnoLlhU_P4UZ-11" target="pP0qypePDnoLlhU_P4UZ-5" edge="1">
          <mxGeometry width="50" height="50" relative="1" as="geometry">
            <mxPoint x="295" y="380" as="sourcePoint" />
            <mxPoint x="410" y="260" as="targetPoint" />
          </mxGeometry>
        </mxCell>
        <mxCell id="pP0qypePDnoLlhU_P4UZ-11" value="&amp;nbsp;конец&lt;br&gt;text_proccessing" style="rounded=1;whiteSpace=wrap;html=1;" parent="1" vertex="1">
          <mxGeometry x="235" y="350" width="120" height="60" as="geometry" />
        </mxCell>
        <mxCell id="3f7rtpIXCXaqfcFqh1qm-1" value="text[][],&amp;nbsp;rows_lens[], row_numbers" style="rounded=0;whiteSpace=wrap;html=1;" parent="1" vertex="1">
          <mxGeometry x="187.5" y="110" width="212.5" height="40" as="geometry" />
        </mxCell>
      </root>
    </mxGraphModel>
  </diagram>
  <diagram id="2yO4LGPuro90kwSfqE50" name="get_text">
    <mxGraphModel dx="804" dy="1839" grid="1" gridSize="10" guides="1" tooltips="1" connect="1" arrows="1" fold="1" page="1" pageScale="1" pageWidth="827" pageHeight="1169" math="0" shadow="0">
      <root>
        <mxCell id="0" />
        <mxCell id="1" parent="0" />
        <mxCell id="LZ7pV9ELtdDTbzdPTes4-1" value="get_text(char text[][], int rows_lens[], FILE *file, int *row_numbers)&lt;br&gt;начало" style="rounded=1;whiteSpace=wrap;html=1;" parent="1" vertex="1">
          <mxGeometry x="120" width="240" height="60" as="geometry" />
        </mxCell>
        <mxCell id="LZ7pV9ELtdDTbzdPTes4-2" value="" style="endArrow=none;html=1;rounded=0;entryX=0.5;entryY=1;entryDx=0;entryDy=0;exitX=0.5;exitY=0;exitDx=0;exitDy=0;" parent="1" source="LZ7pV9ELtdDTbzdPTes4-4" target="LZ7pV9ELtdDTbzdPTes4-1" edge="1">
          <mxGeometry width="50" height="50" relative="1" as="geometry">
            <mxPoint x="240" y="90" as="sourcePoint" />
            <mxPoint x="320" y="350" as="targetPoint" />
          </mxGeometry>
        </mxCell>
        <mxCell id="LZ7pV9ELtdDTbzdPTes4-4" value="i = 0" style="rounded=0;whiteSpace=wrap;html=1;" parent="1" vertex="1">
          <mxGeometry x="200" y="90" width="80" height="30" as="geometry" />
        </mxCell>
        <mxCell id="LZ7pV9ELtdDTbzdPTes4-5" value="" style="endArrow=none;html=1;rounded=0;entryX=0.5;entryY=1;entryDx=0;entryDy=0;exitX=0.5;exitY=0;exitDx=0;exitDy=0;" parent="1" source="LZ7pV9ELtdDTbzdPTes4-6" target="LZ7pV9ELtdDTbzdPTes4-4" edge="1">
          <mxGeometry width="50" height="50" relative="1" as="geometry">
            <mxPoint x="240" y="140" as="sourcePoint" />
            <mxPoint x="320" y="350" as="targetPoint" />
          </mxGeometry>
        </mxCell>
        <mxCell id="LZ7pV9ELtdDTbzdPTes4-6" value="&amp;nbsp; *row_numbers = 0&lt;br&gt;&amp;nbsp; stdin_flag = 1" style="rounded=0;whiteSpace=wrap;html=1;align=left;" parent="1" vertex="1">
          <mxGeometry x="185" y="140" width="110" height="30" as="geometry" />
        </mxCell>
        <mxCell id="LZ7pV9ELtdDTbzdPTes4-7" value="" style="endArrow=none;html=1;rounded=0;entryX=0.5;entryY=1;entryDx=0;entryDy=0;exitX=0.5;exitY=0;exitDx=0;exitDy=0;" parent="1" target="LZ7pV9ELtdDTbzdPTes4-6" edge="1">
          <mxGeometry width="50" height="50" relative="1" as="geometry">
            <mxPoint x="240" y="190" as="sourcePoint" />
            <mxPoint x="310" y="290" as="targetPoint" />
          </mxGeometry>
        </mxCell>
        <mxCell id="LZ7pV9ELtdDTbzdPTes4-8" value="stirng != NULL" style="rhombus;whiteSpace=wrap;html=1;" parent="1" vertex="1">
          <mxGeometry x="172.5" y="310" width="135" height="80" as="geometry" />
        </mxCell>
        <mxCell id="LZ7pV9ELtdDTbzdPTes4-11" value="" style="endArrow=none;html=1;rounded=0;entryX=0.5;entryY=0;entryDx=0;entryDy=0;" parent="1" target="LZ7pV9ELtdDTbzdPTes4-8" edge="1">
          <mxGeometry width="50" height="50" relative="1" as="geometry">
            <mxPoint x="240" y="190" as="sourcePoint" />
            <mxPoint x="310" y="290" as="targetPoint" />
          </mxGeometry>
        </mxCell>
        <mxCell id="LZ7pV9ELtdDTbzdPTes4-14" value="" style="endArrow=none;html=1;rounded=0;exitX=1;exitY=0.5;exitDx=0;exitDy=0;entryX=0.5;entryY=0;entryDx=0;entryDy=0;" parent="1" source="LZ7pV9ELtdDTbzdPTes4-8" target="LZ7pV9ELtdDTbzdPTes4-16" edge="1">
          <mxGeometry width="50" height="50" relative="1" as="geometry">
            <mxPoint x="460" y="420" as="sourcePoint" />
            <mxPoint x="360" y="370" as="targetPoint" />
            <Array as="points">
              <mxPoint x="360" y="350" />
            </Array>
          </mxGeometry>
        </mxCell>
        <mxCell id="LZ7pV9ELtdDTbzdPTes4-15" value="да" style="text;html=1;align=center;verticalAlign=middle;resizable=0;points=[];autosize=1;strokeColor=none;fillColor=none;" parent="1" vertex="1">
          <mxGeometry x="307.5" y="318" width="40" height="30" as="geometry" />
        </mxCell>
        <mxCell id="LZ7pV9ELtdDTbzdPTes4-16" value="stlen = strlen(string)" style="rounded=0;whiteSpace=wrap;html=1;" parent="1" vertex="1">
          <mxGeometry x="300" y="370" width="120" height="40" as="geometry" />
        </mxCell>
        <mxCell id="LZ7pV9ELtdDTbzdPTes4-20" value="" style="endArrow=none;html=1;rounded=0;entryX=0.5;entryY=1;entryDx=0;entryDy=0;exitX=0.5;exitY=0;exitDx=0;exitDy=0;" parent="1" source="LZ7pV9ELtdDTbzdPTes4-22" target="LZ7pV9ELtdDTbzdPTes4-16" edge="1">
          <mxGeometry width="50" height="50" relative="1" as="geometry">
            <mxPoint x="360" y="430" as="sourcePoint" />
            <mxPoint x="400" y="420" as="targetPoint" />
          </mxGeometry>
        </mxCell>
        <mxCell id="LZ7pV9ELtdDTbzdPTes4-22" value="stdin_flag == 1 &lt;br&gt;&amp;amp;&amp;amp; file == stdin" style="rhombus;whiteSpace=wrap;html=1;" parent="1" vertex="1">
          <mxGeometry x="297.5" y="430" width="125" height="80" as="geometry" />
        </mxCell>
        <mxCell id="LZ7pV9ELtdDTbzdPTes4-23" value="" style="endArrow=none;html=1;rounded=0;entryX=1;entryY=0.5;entryDx=0;entryDy=0;exitX=0.5;exitY=0;exitDx=0;exitDy=0;" parent="1" source="LZ7pV9ELtdDTbzdPTes4-25" target="LZ7pV9ELtdDTbzdPTes4-22" edge="1">
          <mxGeometry width="50" height="50" relative="1" as="geometry">
            <mxPoint x="440" y="500" as="sourcePoint" />
            <mxPoint x="370" y="450" as="targetPoint" />
            <Array as="points">
              <mxPoint x="500" y="470" />
            </Array>
          </mxGeometry>
        </mxCell>
        <mxCell id="LZ7pV9ELtdDTbzdPTes4-24" value="да" style="text;html=1;align=center;verticalAlign=middle;resizable=0;points=[];autosize=1;strokeColor=none;fillColor=none;" parent="1" vertex="1">
          <mxGeometry x="410" y="438" width="40" height="30" as="geometry" />
        </mxCell>
        <mxCell id="LZ7pV9ELtdDTbzdPTes4-25" value="stdin_flag = 0" style="rounded=0;whiteSpace=wrap;html=1;" parent="1" vertex="1">
          <mxGeometry x="430" y="530" width="140" height="40" as="geometry" />
        </mxCell>
        <mxCell id="LZ7pV9ELtdDTbzdPTes4-26" value="" style="endArrow=none;html=1;rounded=0;entryX=0.5;entryY=1;entryDx=0;entryDy=0;exitX=0.5;exitY=0;exitDx=0;exitDy=0;" parent="1" source="LZ7pV9ELtdDTbzdPTes4-28" target="LZ7pV9ELtdDTbzdPTes4-22" edge="1">
          <mxGeometry width="50" height="50" relative="1" as="geometry">
            <mxPoint x="360" y="570" as="sourcePoint" />
            <mxPoint x="440" y="500" as="targetPoint" />
          </mxGeometry>
        </mxCell>
        <mxCell id="LZ7pV9ELtdDTbzdPTes4-28" value="strncpy(text[i], string, stlen)" style="rounded=0;whiteSpace=wrap;html=1;" parent="1" vertex="1">
          <mxGeometry x="300" y="530" width="120" height="40" as="geometry" />
        </mxCell>
        <mxCell id="LZ7pV9ELtdDTbzdPTes4-29" value="" style="endArrow=none;html=1;rounded=0;entryX=0.5;entryY=1;entryDx=0;entryDy=0;exitX=0.5;exitY=0;exitDx=0;exitDy=0;" parent="1" source="LZ7pV9ELtdDTbzdPTes4-31" target="LZ7pV9ELtdDTbzdPTes4-28" edge="1">
          <mxGeometry width="50" height="50" relative="1" as="geometry">
            <mxPoint x="360" y="610" as="sourcePoint" />
            <mxPoint x="580" y="500" as="targetPoint" />
          </mxGeometry>
        </mxCell>
        <mxCell id="LZ7pV9ELtdDTbzdPTes4-30" value="" style="endArrow=none;html=1;rounded=0;entryX=0.5;entryY=1;entryDx=0;entryDy=0;" parent="1" target="LZ7pV9ELtdDTbzdPTes4-25" edge="1">
          <mxGeometry width="50" height="50" relative="1" as="geometry">
            <mxPoint x="360" y="710" as="sourcePoint" />
            <mxPoint x="580" y="500" as="targetPoint" />
            <Array as="points">
              <mxPoint x="500" y="710" />
              <mxPoint x="500" y="590" />
            </Array>
          </mxGeometry>
        </mxCell>
        <mxCell id="LZ7pV9ELtdDTbzdPTes4-31" value="rows_lens[*row_numbers] = stlen&lt;br&gt;(*row_numbers)++" style="rounded=0;whiteSpace=wrap;html=1;" parent="1" vertex="1">
          <mxGeometry x="265" y="590" width="190" height="50" as="geometry" />
        </mxCell>
        <mxCell id="LZ7pV9ELtdDTbzdPTes4-32" value="" style="endArrow=classic;html=1;rounded=0;exitX=0.5;exitY=1;exitDx=0;exitDy=0;" parent="1" source="LZ7pV9ELtdDTbzdPTes4-38" edge="1">
          <mxGeometry width="50" height="50" relative="1" as="geometry">
            <mxPoint x="359" y="740.0000000000005" as="sourcePoint" />
            <mxPoint x="239" y="190" as="targetPoint" />
            <Array as="points">
              <mxPoint x="359" y="750" />
              <mxPoint x="590" y="750" />
              <mxPoint x="590" y="190" />
            </Array>
          </mxGeometry>
        </mxCell>
        <mxCell id="LZ7pV9ELtdDTbzdPTes4-33" value="" style="endArrow=none;html=1;rounded=0;exitX=0.5;exitY=1;exitDx=0;exitDy=0;" parent="1" source="LZ7pV9ELtdDTbzdPTes4-8" target="LZ7pV9ELtdDTbzdPTes4-34" edge="1">
          <mxGeometry width="50" height="50" relative="1" as="geometry">
            <mxPoint x="400" y="460" as="sourcePoint" />
            <mxPoint x="240" y="710" as="targetPoint" />
          </mxGeometry>
        </mxCell>
        <mxCell id="LZ7pV9ELtdDTbzdPTes4-34" value="get_text&lt;br&gt;конец" style="rounded=1;whiteSpace=wrap;html=1;" parent="1" vertex="1">
          <mxGeometry x="180" y="690" width="120" height="40" as="geometry" />
        </mxCell>
        <mxCell id="LZ7pV9ELtdDTbzdPTes4-38" value="i++" style="rounded=0;whiteSpace=wrap;html=1;" parent="1" vertex="1">
          <mxGeometry x="315" y="660" width="90" height="30" as="geometry" />
        </mxCell>
        <mxCell id="LZ7pV9ELtdDTbzdPTes4-39" value="" style="endArrow=none;html=1;rounded=0;exitX=0.5;exitY=1;exitDx=0;exitDy=0;entryX=0.5;entryY=0;entryDx=0;entryDy=0;" parent="1" source="LZ7pV9ELtdDTbzdPTes4-31" target="LZ7pV9ELtdDTbzdPTes4-38" edge="1">
          <mxGeometry width="50" height="50" relative="1" as="geometry">
            <mxPoint x="470" y="470" as="sourcePoint" />
            <mxPoint x="520" y="420" as="targetPoint" />
          </mxGeometry>
        </mxCell>
        <mxCell id="FuRBLe2EO8pos-27_9xC-1" value="" style="endArrow=none;dashed=1;html=1;dashPattern=1 3;strokeWidth=2;rounded=0;exitX=1;exitY=0.5;exitDx=0;exitDy=0;" parent="1" source="LZ7pV9ELtdDTbzdPTes4-1" target="FuRBLe2EO8pos-27_9xC-2" edge="1">
          <mxGeometry width="50" height="50" relative="1" as="geometry">
            <mxPoint x="520" y="220" as="sourcePoint" />
            <mxPoint x="430" y="30" as="targetPoint" />
          </mxGeometry>
        </mxCell>
        <mxCell id="FuRBLe2EO8pos-27_9xC-2" value="text[][] - текст из фала&lt;br style=&quot;border-color: var(--border-color);&quot;&gt;file -&amp;nbsp;Файл для чтения пользователем или файл ввода&lt;br style=&quot;border-color: var(--border-color);&quot;&gt;из кнсоли&amp;nbsp;&lt;span style=&quot;border-color: var(--border-color); font-size: 12pt; font-family: &amp;quot;Times New Roman&amp;quot;, serif;&quot; lang=&quot;EN-US&quot;&gt;stdin&lt;br style=&quot;border-color: var(--border-color);&quot;&gt;&lt;/span&gt;rows_lens[] -&amp;nbsp;Массив длин каждой из строк текста&lt;br style=&quot;border-color: var(--border-color);&quot;&gt;&lt;span style=&quot;border-color: var(--border-color); font-size: medium;&quot;&gt;&lt;/span&gt;row_numbers -&amp;nbsp;&lt;span style=&quot;border-color: var(--border-color); font-size: medium;&quot;&gt;&lt;/span&gt;Указатель на количество строк в тексте" style="strokeWidth=2;html=1;shape=mxgraph.flowchart.annotation_2;align=left;labelPosition=right;pointerEvents=1;" parent="1" vertex="1">
          <mxGeometry x="420" y="-20" width="40" height="100" as="geometry" />
        </mxCell>
        <mxCell id="el9DtNmaReiSUHMWfQdp-1" value="чтение из файла&lt;br&gt;или&lt;br&gt;ввод (в зависимости от режима)&lt;br&gt;string" style="shape=parallelogram;perimeter=parallelogramPerimeter;whiteSpace=wrap;html=1;fixedSize=1;" parent="1" vertex="1">
          <mxGeometry x="125" y="210" width="230" height="80" as="geometry" />
        </mxCell>
      </root>
    </mxGraphModel>
  </diagram>
  <diagram id="celMt22-qHsr8ZvWCl2D" name="comment_replace">
    <mxGraphModel dx="1787" dy="1489" grid="1" gridSize="10" guides="1" tooltips="1" connect="1" arrows="1" fold="1" page="1" pageScale="1" pageWidth="827" pageHeight="1169" math="0" shadow="0">
      <root>
        <mxCell id="0" />
        <mxCell id="1" parent="0" />
        <mxCell id="Xa8gHibYZUdiPkICgTVn-1" value="comment_replace(char text[][], int rows, int rows_lens[])&lt;br&gt;начало" style="rounded=1;whiteSpace=wrap;html=1;" parent="1" vertex="1">
          <mxGeometry y="25" width="220" height="50" as="geometry" />
        </mxCell>
        <mxCell id="V1CHs8uc72uU39WLYJ6_-1" value="" style="endArrow=none;dashed=1;html=1;dashPattern=1 3;strokeWidth=2;rounded=0;exitX=1;exitY=0.5;exitDx=0;exitDy=0;entryX=0;entryY=0.5;entryDx=0;entryDy=0;entryPerimeter=0;" parent="1" source="Xa8gHibYZUdiPkICgTVn-1" target="V1CHs8uc72uU39WLYJ6_-2" edge="1">
          <mxGeometry width="50" height="50" relative="1" as="geometry">
            <mxPoint x="120" y="365" as="sourcePoint" />
            <mxPoint x="260" y="55" as="targetPoint" />
          </mxGeometry>
        </mxCell>
        <mxCell id="V1CHs8uc72uU39WLYJ6_-2" value="text[][] - текст из фала&lt;br style=&quot;border-color: var(--border-color);&quot;&gt;rows_lens[] -&amp;nbsp;Массив длин каждой из строк текста&lt;br style=&quot;border-color: var(--border-color);&quot;&gt;&lt;span style=&quot;border-color: var(--border-color); font-size: medium;&quot;&gt;&lt;/span&gt;row_numbers -&amp;nbsp;&lt;span style=&quot;border-color: var(--border-color); font-size: medium;&quot;&gt;&lt;/span&gt;Указатель на количество строк в тексте" style="strokeWidth=2;html=1;shape=mxgraph.flowchart.annotation_2;align=left;labelPosition=right;pointerEvents=1;" parent="1" vertex="1">
          <mxGeometry x="260" y="20" width="50" height="60" as="geometry" />
        </mxCell>
        <mxCell id="V1CHs8uc72uU39WLYJ6_-3" value="" style="endArrow=none;html=1;rounded=0;entryX=0.5;entryY=1;entryDx=0;entryDy=0;" parent="1" source="V1CHs8uc72uU39WLYJ6_-4" target="Xa8gHibYZUdiPkICgTVn-1" edge="1">
          <mxGeometry width="50" height="50" relative="1" as="geometry">
            <mxPoint x="110" y="125" as="sourcePoint" />
            <mxPoint x="170" y="315" as="targetPoint" />
          </mxGeometry>
        </mxCell>
        <mxCell id="V1CHs8uc72uU39WLYJ6_-5" value="" style="endArrow=none;html=1;rounded=0;entryX=0.5;entryY=1;entryDx=0;entryDy=0;" parent="1" target="V1CHs8uc72uU39WLYJ6_-4" edge="1">
          <mxGeometry width="50" height="50" relative="1" as="geometry">
            <mxPoint x="110" y="125" as="sourcePoint" />
            <mxPoint x="110" y="75" as="targetPoint" />
          </mxGeometry>
        </mxCell>
        <mxCell id="V1CHs8uc72uU39WLYJ6_-4" value="row = 0&lt;br&gt;isStillComment = 0" style="rounded=0;whiteSpace=wrap;html=1;" parent="1" vertex="1">
          <mxGeometry x="50" y="95" width="120" height="60" as="geometry" />
        </mxCell>
        <mxCell id="V1CHs8uc72uU39WLYJ6_-6" value="" style="endArrow=none;html=1;rounded=0;entryX=0.5;entryY=1;entryDx=0;entryDy=0;exitX=0.5;exitY=0;exitDx=0;exitDy=0;" parent="1" source="V1CHs8uc72uU39WLYJ6_-7" target="V1CHs8uc72uU39WLYJ6_-4" edge="1">
          <mxGeometry width="50" height="50" relative="1" as="geometry">
            <mxPoint x="110" y="175" as="sourcePoint" />
            <mxPoint x="170" y="315" as="targetPoint" />
          </mxGeometry>
        </mxCell>
        <mxCell id="V1CHs8uc72uU39WLYJ6_-7" value="row &amp;lt; rows" style="rhombus;whiteSpace=wrap;html=1;" parent="1" vertex="1">
          <mxGeometry x="60" y="175" width="100" height="60" as="geometry" />
        </mxCell>
        <mxCell id="4WWKSRmKpId2Ynk86SK1-1" value="" style="endArrow=none;html=1;rounded=0;entryX=1;entryY=0.5;entryDx=0;entryDy=0;exitX=0.5;exitY=0;exitDx=0;exitDy=0;" parent="1" source="4WWKSRmKpId2Ynk86SK1-4" target="V1CHs8uc72uU39WLYJ6_-7" edge="1">
          <mxGeometry width="50" height="50" relative="1" as="geometry">
            <mxPoint x="220" y="275" as="sourcePoint" />
            <mxPoint x="170" y="315" as="targetPoint" />
            <Array as="points">
              <mxPoint x="320" y="205" />
            </Array>
          </mxGeometry>
        </mxCell>
        <mxCell id="4WWKSRmKpId2Ynk86SK1-2" value="да" style="text;html=1;align=center;verticalAlign=middle;resizable=0;points=[];autosize=1;strokeColor=none;fillColor=none;" parent="1" vertex="1">
          <mxGeometry x="160" y="175" width="40" height="30" as="geometry" />
        </mxCell>
        <mxCell id="4WWKSRmKpId2Ynk86SK1-3" value="" style="endArrow=none;html=1;rounded=0;entryX=0.5;entryY=1;entryDx=0;entryDy=0;exitX=0.5;exitY=0;exitDx=0;exitDy=0;" parent="1" source="IeSPsAntTj7WjU1l0Raj-33" target="V1CHs8uc72uU39WLYJ6_-7" edge="1">
          <mxGeometry width="50" height="50" relative="1" as="geometry">
            <mxPoint x="110" y="295" as="sourcePoint" />
            <mxPoint x="170" y="315" as="targetPoint" />
          </mxGeometry>
        </mxCell>
        <mxCell id="4WWKSRmKpId2Ynk86SK1-4" value="&lt;div&gt;text[row][0] == &#39;/&#39; &amp;amp;&amp;amp; text[row][1] == &#39;/&#39; &amp;amp;&amp;amp;&amp;nbsp;&lt;/div&gt;&lt;div&gt;text[row + 1][0] == &#39;/&#39; &amp;amp;&amp;amp; text[row + 1][1] == &#39;/&#39; &amp;amp;&amp;amp;&lt;/div&gt;&lt;div&gt;&amp;nbsp; &amp;nbsp; &amp;nbsp; &amp;nbsp; &amp;nbsp; &amp;nbsp; isStillComment == 0&lt;/div&gt;" style="rhombus;whiteSpace=wrap;html=1;" parent="1" vertex="1">
          <mxGeometry x="150" y="235" width="340" height="140" as="geometry" />
        </mxCell>
        <mxCell id="4WWKSRmKpId2Ynk86SK1-5" value="" style="endArrow=none;html=1;rounded=0;entryX=0.5;entryY=1;entryDx=0;entryDy=0;exitX=0.5;exitY=0;exitDx=0;exitDy=0;" parent="1" source="4WWKSRmKpId2Ynk86SK1-9" target="4WWKSRmKpId2Ynk86SK1-4" edge="1">
          <mxGeometry width="50" height="50" relative="1" as="geometry">
            <mxPoint x="325" y="455" as="sourcePoint" />
            <mxPoint x="350" y="415" as="targetPoint" />
          </mxGeometry>
        </mxCell>
        <mxCell id="4WWKSRmKpId2Ynk86SK1-6" value="" style="endArrow=none;html=1;rounded=0;entryX=1;entryY=0.5;entryDx=0;entryDy=0;exitX=0.5;exitY=0;exitDx=0;exitDy=0;" parent="1" source="4WWKSRmKpId2Ynk86SK1-8" target="4WWKSRmKpId2Ynk86SK1-4" edge="1">
          <mxGeometry width="50" height="50" relative="1" as="geometry">
            <mxPoint x="680" y="365" as="sourcePoint" />
            <mxPoint x="630" y="305.0000000000002" as="targetPoint" />
            <Array as="points">
              <mxPoint x="770" y="305" />
            </Array>
          </mxGeometry>
        </mxCell>
        <mxCell id="4WWKSRmKpId2Ynk86SK1-8" value="&lt;div&gt;text[row][1] = &#39;*&#39;&lt;span style=&quot;background-color: initial;&quot;&gt;&amp;nbsp; &amp;nbsp; &amp;nbsp; &amp;nbsp; isStillComment = 1&lt;/span&gt;&lt;/div&gt;" style="rounded=0;whiteSpace=wrap;html=1;" parent="1" vertex="1">
          <mxGeometry x="710" y="355" width="120" height="45" as="geometry" />
        </mxCell>
        <mxCell id="4WWKSRmKpId2Ynk86SK1-9" value="isStillComment == 1" style="rhombus;whiteSpace=wrap;html=1;" parent="1" vertex="1">
          <mxGeometry x="242.5" y="400" width="155" height="80" as="geometry" />
        </mxCell>
        <mxCell id="4WWKSRmKpId2Ynk86SK1-10" value="" style="endArrow=none;html=1;rounded=0;exitX=1;exitY=0.5;exitDx=0;exitDy=0;entryX=0.5;entryY=0;entryDx=0;entryDy=0;" parent="1" source="4WWKSRmKpId2Ynk86SK1-9" target="IeSPsAntTj7WjU1l0Raj-81" edge="1">
          <mxGeometry width="50" height="50" relative="1" as="geometry">
            <mxPoint x="537.5" y="440" as="sourcePoint" />
            <mxPoint x="655" y="455" as="targetPoint" />
            <Array as="points">
              <mxPoint x="560" y="440" />
            </Array>
          </mxGeometry>
        </mxCell>
        <mxCell id="4WWKSRmKpId2Ynk86SK1-16" value="да" style="text;html=1;align=center;verticalAlign=middle;resizable=0;points=[];autosize=1;strokeColor=none;fillColor=none;" parent="1" vertex="1">
          <mxGeometry x="480" y="270" width="40" height="30" as="geometry" />
        </mxCell>
        <mxCell id="4WWKSRmKpId2Ynk86SK1-17" value="да" style="text;html=1;align=center;verticalAlign=middle;resizable=0;points=[];autosize=1;strokeColor=none;fillColor=none;" parent="1" vertex="1">
          <mxGeometry x="400" y="410" width="40" height="30" as="geometry" />
        </mxCell>
        <mxCell id="IeSPsAntTj7WjU1l0Raj-2" value="" style="endArrow=none;html=1;rounded=0;exitX=0.5;exitY=1;exitDx=0;exitDy=0;" parent="1" source="IeSPsAntTj7WjU1l0Raj-81" edge="1">
          <mxGeometry width="50" height="50" relative="1" as="geometry">
            <mxPoint x="652.5000000000002" y="825" as="sourcePoint" />
            <mxPoint x="320" y="610" as="targetPoint" />
            <Array as="points">
              <mxPoint x="560" y="610" />
            </Array>
          </mxGeometry>
        </mxCell>
        <mxCell id="IeSPsAntTj7WjU1l0Raj-8" value="" style="endArrow=classic;html=1;rounded=0;exitX=0.5;exitY=1;exitDx=0;exitDy=0;" parent="1" source="IeSPsAntTj7WjU1l0Raj-31" edge="1">
          <mxGeometry width="50" height="50" relative="1" as="geometry">
            <mxPoint x="1730" y="170" as="sourcePoint" />
            <mxPoint x="110" y="170" as="targetPoint" />
            <Array as="points">
              <mxPoint x="320" y="690" />
              <mxPoint x="870" y="690" />
              <mxPoint x="870" y="170" />
            </Array>
          </mxGeometry>
        </mxCell>
        <mxCell id="IeSPsAntTj7WjU1l0Raj-26" value="" style="endArrow=none;html=1;rounded=0;entryX=0.5;entryY=1;entryDx=0;entryDy=0;" parent="1" target="IeSPsAntTj7WjU1l0Raj-57" edge="1">
          <mxGeometry width="50" height="50" relative="1" as="geometry">
            <mxPoint x="320" y="640" as="sourcePoint" />
            <mxPoint x="320" y="800" as="targetPoint" />
          </mxGeometry>
        </mxCell>
        <mxCell id="IeSPsAntTj7WjU1l0Raj-29" value="" style="endArrow=none;html=1;rounded=0;entryX=0.5;entryY=1;entryDx=0;entryDy=0;" parent="1" target="4WWKSRmKpId2Ynk86SK1-8" edge="1">
          <mxGeometry width="50" height="50" relative="1" as="geometry">
            <mxPoint x="560" y="610" as="sourcePoint" />
            <mxPoint x="610" y="559.5" as="targetPoint" />
            <Array as="points">
              <mxPoint x="770" y="610" />
            </Array>
          </mxGeometry>
        </mxCell>
        <mxCell id="IeSPsAntTj7WjU1l0Raj-30" value="" style="endArrow=none;html=1;rounded=0;entryX=0.5;entryY=0;entryDx=0;entryDy=0;" parent="1" target="IeSPsAntTj7WjU1l0Raj-31" edge="1">
          <mxGeometry width="50" height="50" relative="1" as="geometry">
            <mxPoint x="320" y="640" as="sourcePoint" />
            <mxPoint x="1400" y="940" as="targetPoint" />
            <Array as="points">
              <mxPoint x="320" y="660" />
            </Array>
          </mxGeometry>
        </mxCell>
        <mxCell id="IeSPsAntTj7WjU1l0Raj-31" value="row++" style="rounded=0;whiteSpace=wrap;html=1;" parent="1" vertex="1">
          <mxGeometry x="290" y="640" width="60" height="30" as="geometry" />
        </mxCell>
        <mxCell id="IeSPsAntTj7WjU1l0Raj-33" value="comment_replace&lt;br&gt;конец" style="rounded=1;whiteSpace=wrap;html=1;" parent="1" vertex="1">
          <mxGeometry x="50" y="630" width="120" height="60" as="geometry" />
        </mxCell>
        <mxCell id="IeSPsAntTj7WjU1l0Raj-57" value="A2" style="swimlane;whiteSpace=wrap;html=1;" parent="1" vertex="1">
          <mxGeometry x="220" y="500" width="200" height="90" as="geometry" />
        </mxCell>
        <mxCell id="IeSPsAntTj7WjU1l0Raj-60" value="Обработка однострочного&lt;br&gt;&amp;nbsp;комментария" style="text;html=1;align=center;verticalAlign=middle;resizable=0;points=[];autosize=1;strokeColor=none;fillColor=none;" parent="IeSPsAntTj7WjU1l0Raj-57" vertex="1">
          <mxGeometry x="15" y="35.5" width="170" height="40" as="geometry" />
        </mxCell>
        <mxCell id="IeSPsAntTj7WjU1l0Raj-58" value="" style="endArrow=none;html=1;rounded=0;entryX=0.5;entryY=1;entryDx=0;entryDy=0;exitX=0.5;exitY=0;exitDx=0;exitDy=0;" parent="1" source="IeSPsAntTj7WjU1l0Raj-57" target="4WWKSRmKpId2Ynk86SK1-9" edge="1">
          <mxGeometry width="50" height="50" relative="1" as="geometry">
            <mxPoint x="640" y="470" as="sourcePoint" />
            <mxPoint x="690" y="420" as="targetPoint" />
          </mxGeometry>
        </mxCell>
        <mxCell id="IeSPsAntTj7WjU1l0Raj-81" value="A1" style="swimlane;whiteSpace=wrap;html=1;" parent="1" vertex="1">
          <mxGeometry x="440" y="500" width="240" height="90" as="geometry" />
        </mxCell>
        <mxCell id="IeSPsAntTj7WjU1l0Raj-82" value="Обработка строки &lt;br&gt;многострочного комментария" style="text;html=1;align=center;verticalAlign=middle;resizable=0;points=[];autosize=1;strokeColor=none;fillColor=none;" parent="IeSPsAntTj7WjU1l0Raj-81" vertex="1">
          <mxGeometry x="20" y="35.5" width="190" height="40" as="geometry" />
        </mxCell>
        <mxCell id="IeSPsAntTj7WjU1l0Raj-83" value="" style="endArrow=none;dashed=1;html=1;rounded=0;" parent="1" edge="1">
          <mxGeometry width="50" height="50" relative="1" as="geometry">
            <mxPoint x="690" y="340" as="sourcePoint" />
            <mxPoint x="690" y="340" as="targetPoint" />
            <Array as="points">
              <mxPoint x="690" y="420" />
              <mxPoint x="850" y="420" />
              <mxPoint x="850" y="340" />
            </Array>
          </mxGeometry>
        </mxCell>
        <mxCell id="IeSPsAntTj7WjU1l0Raj-84" value="обработка первой строки &lt;br&gt;многострочного комментария" style="strokeWidth=2;html=1;shape=mxgraph.flowchart.annotation_2;align=left;labelPosition=right;pointerEvents=1;" parent="1" vertex="1">
          <mxGeometry x="890" y="330" width="50" height="100" as="geometry" />
        </mxCell>
        <mxCell id="IeSPsAntTj7WjU1l0Raj-85" value="" style="endArrow=none;dashed=1;html=1;rounded=0;exitX=0;exitY=0.5;exitDx=0;exitDy=0;exitPerimeter=0;" parent="1" source="IeSPsAntTj7WjU1l0Raj-84" edge="1">
          <mxGeometry width="50" height="50" relative="1" as="geometry">
            <mxPoint x="800" y="440" as="sourcePoint" />
            <mxPoint x="850" y="380" as="targetPoint" />
          </mxGeometry>
        </mxCell>
      </root>
    </mxGraphModel>
  </diagram>
  <diagram id="jIcNfnatIfnopbA-Oe01" name="comment_replaceA1A2">
    <mxGraphModel dx="178" dy="838" grid="1" gridSize="10" guides="1" tooltips="1" connect="1" arrows="1" fold="1" page="1" pageScale="1" pageWidth="827" pageHeight="1169" math="0" shadow="0">
      <root>
        <mxCell id="0" />
        <mxCell id="1" parent="0" />
        <mxCell id="LZv1H57CV4ByQzqz-5eu-1" value="comment_replace&lt;br&gt;A2&lt;br&gt;начало" style="rounded=1;whiteSpace=wrap;html=1;" vertex="1" parent="1">
          <mxGeometry x="865" y="576.75" width="120" height="60" as="geometry" />
        </mxCell>
        <mxCell id="LZv1H57CV4ByQzqz-5eu-2" value="" style="endArrow=none;html=1;rounded=0;exitX=0.5;exitY=1;exitDx=0;exitDy=0;" edge="1" parent="1" source="LZv1H57CV4ByQzqz-5eu-4">
          <mxGeometry width="50" height="50" relative="1" as="geometry">
            <mxPoint x="985" y="531.75" as="sourcePoint" />
            <mxPoint x="925" y="676.75" as="targetPoint" />
          </mxGeometry>
        </mxCell>
        <mxCell id="LZv1H57CV4ByQzqz-5eu-3" value="" style="endArrow=none;html=1;rounded=0;exitX=0.5;exitY=1;exitDx=0;exitDy=0;" edge="1" parent="1" source="LZv1H57CV4ByQzqz-5eu-1" target="LZv1H57CV4ByQzqz-5eu-4">
          <mxGeometry width="50" height="50" relative="1" as="geometry">
            <mxPoint x="925" y="716.75" as="sourcePoint" />
            <mxPoint x="925" y="756.75" as="targetPoint" />
          </mxGeometry>
        </mxCell>
        <mxCell id="LZv1H57CV4ByQzqz-5eu-4" value="&lt;div style=&quot;text-align: left;&quot;&gt;&lt;span style=&quot;background-color: initial;&quot;&gt;haveComment = 0&lt;/span&gt;&lt;/div&gt;&lt;div style=&quot;text-align: left;&quot;&gt;&lt;span style=&quot;background-color: initial;&quot;&gt;col = 0&lt;/span&gt;&lt;/div&gt;" style="rounded=0;whiteSpace=wrap;html=1;" vertex="1" parent="1">
          <mxGeometry x="865" y="656.75" width="120" height="40" as="geometry" />
        </mxCell>
        <mxCell id="LZv1H57CV4ByQzqz-5eu-5" value="" style="endArrow=none;html=1;rounded=0;exitX=0.5;exitY=1;exitDx=0;exitDy=0;" edge="1" parent="1" source="LZv1H57CV4ByQzqz-5eu-4" target="LZv1H57CV4ByQzqz-5eu-6">
          <mxGeometry width="50" height="50" relative="1" as="geometry">
            <mxPoint x="1145" y="826.75" as="sourcePoint" />
            <mxPoint x="925" y="716.75" as="targetPoint" />
          </mxGeometry>
        </mxCell>
        <mxCell id="LZv1H57CV4ByQzqz-5eu-6" value="col &amp;lt; rows_lens[row]" style="rhombus;whiteSpace=wrap;html=1;" vertex="1" parent="1">
          <mxGeometry x="845" y="716.75" width="160" height="60" as="geometry" />
        </mxCell>
        <mxCell id="LZv1H57CV4ByQzqz-5eu-7" value="" style="endArrow=classic;html=1;rounded=0;exitX=0.5;exitY=1;exitDx=0;exitDy=0;" edge="1" parent="1" source="LZv1H57CV4ByQzqz-5eu-10">
          <mxGeometry width="50" height="50" relative="1" as="geometry">
            <mxPoint x="1045" y="706.75" as="sourcePoint" />
            <mxPoint x="925" y="706.75" as="targetPoint" />
            <Array as="points">
              <mxPoint x="1195" y="1016.75" />
              <mxPoint x="1425" y="1016.75" />
              <mxPoint x="1425" y="706.75" />
            </Array>
          </mxGeometry>
        </mxCell>
        <mxCell id="LZv1H57CV4ByQzqz-5eu-8" value="" style="endArrow=none;html=1;rounded=0;exitX=1;exitY=0.5;exitDx=0;exitDy=0;" edge="1" parent="1" source="LZv1H57CV4ByQzqz-5eu-6">
          <mxGeometry width="50" height="50" relative="1" as="geometry">
            <mxPoint x="1145" y="746.75" as="sourcePoint" />
            <mxPoint x="1195" y="766.75" as="targetPoint" />
            <Array as="points">
              <mxPoint x="1195" y="746.75" />
            </Array>
          </mxGeometry>
        </mxCell>
        <mxCell id="LZv1H57CV4ByQzqz-5eu-9" value="да" style="text;html=1;align=center;verticalAlign=middle;resizable=0;points=[];autosize=1;strokeColor=none;fillColor=none;" vertex="1" parent="1">
          <mxGeometry x="990" y="716.75" width="40" height="30" as="geometry" />
        </mxCell>
        <mxCell id="LZv1H57CV4ByQzqz-5eu-10" value="(text[row][col] == &#39;/&#39;) &amp;amp;&amp;amp;&lt;br&gt;&amp;nbsp;(text[row][col + 1] == &#39;/&#39;)" style="rhombus;whiteSpace=wrap;html=1;" vertex="1" parent="1">
          <mxGeometry x="1105" y="764.75" width="180" height="102" as="geometry" />
        </mxCell>
        <mxCell id="LZv1H57CV4ByQzqz-5eu-11" value="" style="endArrow=none;html=1;rounded=0;entryX=0.04;entryY=0.969;entryDx=0;entryDy=0;exitX=0.5;exitY=0;exitDx=0;exitDy=0;entryPerimeter=0;" edge="1" parent="1" source="LZv1H57CV4ByQzqz-5eu-13" target="LZv1H57CV4ByQzqz-5eu-12">
          <mxGeometry width="50" height="50" relative="1" as="geometry">
            <mxPoint x="1364" y="846.75" as="sourcePoint" />
            <mxPoint x="1334" y="815.7499999999998" as="targetPoint" />
            <Array as="points">
              <mxPoint x="1325" y="815.75" />
            </Array>
          </mxGeometry>
        </mxCell>
        <mxCell id="LZv1H57CV4ByQzqz-5eu-12" value="да" style="text;html=1;align=center;verticalAlign=middle;resizable=0;points=[];autosize=1;strokeColor=none;fillColor=none;" vertex="1" parent="1">
          <mxGeometry x="1285" y="786.75" width="40" height="30" as="geometry" />
        </mxCell>
        <mxCell id="LZv1H57CV4ByQzqz-5eu-13" value="&lt;div&gt;text[row][col + 1] = &#39;*&#39;&lt;/div&gt;&lt;div&gt;&lt;span style=&quot;background-color: initial;&quot;&gt;col++;&lt;/span&gt;&lt;span style=&quot;background-color: initial;&quot;&gt;&amp;nbsp; &amp;nbsp; &amp;nbsp; &amp;nbsp; &amp;nbsp; &amp;nbsp; &amp;nbsp; &amp;nbsp; &amp;nbsp; haveComment = 1;&lt;/span&gt;&lt;/div&gt;" style="rounded=0;whiteSpace=wrap;html=1;align=left;" vertex="1" parent="1">
          <mxGeometry x="1265" y="846.75" width="120" height="60" as="geometry" />
        </mxCell>
        <mxCell id="LZv1H57CV4ByQzqz-5eu-14" value="" style="endArrow=none;html=1;rounded=0;" edge="1" parent="1" source="LZv1H57CV4ByQzqz-5eu-13">
          <mxGeometry width="50" height="50" relative="1" as="geometry">
            <mxPoint x="1285" y="886.75" as="sourcePoint" />
            <mxPoint x="1195" y="936.75" as="targetPoint" />
            <Array as="points">
              <mxPoint x="1325" y="936.75" />
            </Array>
          </mxGeometry>
        </mxCell>
        <mxCell id="LZv1H57CV4ByQzqz-5eu-15" value="" style="endArrow=none;html=1;rounded=0;entryX=0.5;entryY=1;entryDx=0;entryDy=0;exitX=0.5;exitY=0;exitDx=0;exitDy=0;" edge="1" parent="1" source="LZv1H57CV4ByQzqz-5eu-17" target="LZv1H57CV4ByQzqz-5eu-6">
          <mxGeometry width="50" height="50" relative="1" as="geometry">
            <mxPoint x="925" y="886.75" as="sourcePoint" />
            <mxPoint x="1105" y="776.75" as="targetPoint" />
          </mxGeometry>
        </mxCell>
        <mxCell id="LZv1H57CV4ByQzqz-5eu-16" value="col++" style="rounded=0;whiteSpace=wrap;html=1;" vertex="1" parent="1">
          <mxGeometry x="1155" y="956.75" width="80" height="40" as="geometry" />
        </mxCell>
        <mxCell id="LZv1H57CV4ByQzqz-5eu-17" value="haveComment == 1" style="rhombus;whiteSpace=wrap;html=1;" vertex="1" parent="1">
          <mxGeometry x="860" y="876.75" width="130" height="80" as="geometry" />
        </mxCell>
        <mxCell id="LZv1H57CV4ByQzqz-5eu-18" value="" style="endArrow=none;html=1;rounded=0;entryX=1;entryY=0.5;entryDx=0;entryDy=0;exitX=0.5;exitY=0;exitDx=0;exitDy=0;" edge="1" parent="1" source="LZv1H57CV4ByQzqz-5eu-20" target="LZv1H57CV4ByQzqz-5eu-17">
          <mxGeometry width="50" height="50" relative="1" as="geometry">
            <mxPoint x="1045" y="956.75" as="sourcePoint" />
            <mxPoint x="1225" y="1076.75" as="targetPoint" />
            <Array as="points">
              <mxPoint x="1045" y="916.75" />
            </Array>
          </mxGeometry>
        </mxCell>
        <mxCell id="LZv1H57CV4ByQzqz-5eu-19" value="да" style="text;html=1;align=center;verticalAlign=middle;resizable=0;points=[];autosize=1;strokeColor=none;fillColor=none;" vertex="1" parent="1">
          <mxGeometry x="975" y="874.75" width="40" height="30" as="geometry" />
        </mxCell>
        <mxCell id="LZv1H57CV4ByQzqz-5eu-20" value="close_comment(text, row, rows_lens);" style="shape=process;whiteSpace=wrap;html=1;backgroundOutline=1;size=0.07142857142857142;" vertex="1" parent="1">
          <mxGeometry x="975" y="956.75" width="140" height="60" as="geometry" />
        </mxCell>
        <mxCell id="LZv1H57CV4ByQzqz-5eu-21" value="" style="endArrow=none;html=1;rounded=0;entryX=0.5;entryY=1;entryDx=0;entryDy=0;" edge="1" parent="1" target="LZv1H57CV4ByQzqz-5eu-20">
          <mxGeometry width="50" height="50" relative="1" as="geometry">
            <mxPoint x="925" y="1036.75" as="sourcePoint" />
            <mxPoint x="1395" y="1076.75" as="targetPoint" />
            <Array as="points">
              <mxPoint x="1045" y="1036.75" />
            </Array>
          </mxGeometry>
        </mxCell>
        <mxCell id="LZv1H57CV4ByQzqz-5eu-22" value="" style="endArrow=none;html=1;rounded=0;exitX=0.5;exitY=1;exitDx=0;exitDy=0;entryX=0.5;entryY=0;entryDx=0;entryDy=0;" edge="1" parent="1" source="LZv1H57CV4ByQzqz-5eu-17" target="LZv1H57CV4ByQzqz-5eu-23">
          <mxGeometry width="50" height="50" relative="1" as="geometry">
            <mxPoint x="855" y="866.75" as="sourcePoint" />
            <mxPoint x="925" y="1066.75" as="targetPoint" />
          </mxGeometry>
        </mxCell>
        <mxCell id="LZv1H57CV4ByQzqz-5eu-23" value="comment_replace&lt;br&gt;A2&lt;br&gt;конец" style="rounded=1;whiteSpace=wrap;html=1;" vertex="1" parent="1">
          <mxGeometry x="865" y="1050.25" width="120" height="60" as="geometry" />
        </mxCell>
        <mxCell id="LZv1H57CV4ByQzqz-5eu-24" value="comment_replace&lt;br style=&quot;border-color: var(--border-color);&quot;&gt;A1&lt;br style=&quot;border-color: var(--border-color);&quot;&gt;начало" style="rounded=1;whiteSpace=wrap;html=1;" vertex="1" parent="1">
          <mxGeometry x="865" y="501.75" width="120" height="60" as="geometry" />
        </mxCell>
        <mxCell id="LZv1H57CV4ByQzqz-5eu-25" value="comment_replace&lt;br style=&quot;border-color: var(--border-color);&quot;&gt;A1&lt;br style=&quot;border-color: var(--border-color);&quot;&gt;начало" style="rounded=1;whiteSpace=wrap;html=1;" vertex="1" parent="1">
          <mxGeometry x="865" width="120" height="60" as="geometry" />
        </mxCell>
        <mxCell id="LZv1H57CV4ByQzqz-5eu-26" value="" style="endArrow=none;html=1;rounded=0;entryX=0.5;entryY=1;entryDx=0;entryDy=0;exitX=0.5;exitY=0;exitDx=0;exitDy=0;" edge="1" parent="1" source="LZv1H57CV4ByQzqz-5eu-28" target="LZv1H57CV4ByQzqz-5eu-27">
          <mxGeometry width="50" height="50" relative="1" as="geometry">
            <mxPoint x="925" y="170" as="sourcePoint" />
            <mxPoint x="645" y="80" as="targetPoint" />
          </mxGeometry>
        </mxCell>
        <mxCell id="LZv1H57CV4ByQzqz-5eu-27" value="&lt;div style=&quot;&quot;&gt;text[row][0] = &#39; &#39;&lt;/div&gt;&lt;div style=&quot;&quot;&gt;&lt;span style=&quot;background-color: initial;&quot;&gt;text[row][1] = &#39;*&#39;&lt;/span&gt;&lt;/div&gt;" style="rounded=0;whiteSpace=wrap;html=1;align=center;" vertex="1" parent="1">
          <mxGeometry x="865" y="80" width="120" height="40" as="geometry" />
        </mxCell>
        <mxCell id="LZv1H57CV4ByQzqz-5eu-28" value="text[row + 1][0] != &#39;/&#39; &amp;amp;&amp;amp; text[row + 1][1] != &#39;/&#39;" style="rhombus;whiteSpace=wrap;html=1;" vertex="1" parent="1">
          <mxGeometry x="840" y="139.75" width="170" height="90" as="geometry" />
        </mxCell>
        <mxCell id="LZv1H57CV4ByQzqz-5eu-29" value="" style="endArrow=none;html=1;rounded=0;exitX=1;exitY=0.5;exitDx=0;exitDy=0;entryX=0.5;entryY=0;entryDx=0;entryDy=0;" edge="1" parent="1" source="LZv1H57CV4ByQzqz-5eu-28" target="LZv1H57CV4ByQzqz-5eu-31">
          <mxGeometry width="50" height="50" relative="1" as="geometry">
            <mxPoint x="760" y="-10" as="sourcePoint" />
            <mxPoint x="1110" y="220" as="targetPoint" />
            <Array as="points">
              <mxPoint x="1125" y="184.75" />
            </Array>
          </mxGeometry>
        </mxCell>
        <mxCell id="LZv1H57CV4ByQzqz-5eu-30" value="да" style="text;html=1;align=center;verticalAlign=middle;resizable=0;points=[];autosize=1;strokeColor=none;fillColor=none;" vertex="1" parent="1">
          <mxGeometry x="1005" y="161.75" width="40" height="30" as="geometry" />
        </mxCell>
        <mxCell id="LZv1H57CV4ByQzqz-5eu-31" value="text[row][2] != &#39;\n&#39;" style="rhombus;whiteSpace=wrap;html=1;" vertex="1" parent="1">
          <mxGeometry x="1065" y="221.75" width="120" height="80" as="geometry" />
        </mxCell>
        <mxCell id="LZv1H57CV4ByQzqz-5eu-32" value="" style="endArrow=none;html=1;rounded=0;entryX=1;entryY=0.5;entryDx=0;entryDy=0;exitX=0.5;exitY=0;exitDx=0;exitDy=0;" edge="1" parent="1" source="LZv1H57CV4ByQzqz-5eu-35" target="LZv1H57CV4ByQzqz-5eu-31">
          <mxGeometry width="50" height="50" relative="1" as="geometry">
            <mxPoint x="1225" y="291.75" as="sourcePoint" />
            <mxPoint x="1135" y="261.75" as="targetPoint" />
            <Array as="points">
              <mxPoint x="1255" y="261.75" />
            </Array>
          </mxGeometry>
        </mxCell>
        <mxCell id="LZv1H57CV4ByQzqz-5eu-33" value="да" style="text;html=1;align=center;verticalAlign=middle;resizable=0;points=[];autosize=1;strokeColor=none;fillColor=none;" vertex="1" parent="1">
          <mxGeometry x="1175" y="229.75" width="40" height="30" as="geometry" />
        </mxCell>
        <mxCell id="LZv1H57CV4ByQzqz-5eu-34" value="" style="endArrow=none;html=1;rounded=0;entryX=0.5;entryY=1;entryDx=0;entryDy=0;exitX=0.5;exitY=0;exitDx=0;exitDy=0;" edge="1" parent="1" source="LZv1H57CV4ByQzqz-5eu-37" target="LZv1H57CV4ByQzqz-5eu-31">
          <mxGeometry width="50" height="50" relative="1" as="geometry">
            <mxPoint x="1125" y="331.75" as="sourcePoint" />
            <mxPoint x="1135" y="261.75" as="targetPoint" />
          </mxGeometry>
        </mxCell>
        <mxCell id="LZv1H57CV4ByQzqz-5eu-35" value="close_comment(text, row, rows_lens);" style="shape=process;whiteSpace=wrap;html=1;backgroundOutline=1;size=0.08333333333333333;" vertex="1" parent="1">
          <mxGeometry x="1185" y="281.75" width="140" height="60" as="geometry" />
        </mxCell>
        <mxCell id="LZv1H57CV4ByQzqz-5eu-36" value="" style="endArrow=none;html=1;rounded=0;entryX=0.5;entryY=1;entryDx=0;entryDy=0;" edge="1" parent="1" target="LZv1H57CV4ByQzqz-5eu-35">
          <mxGeometry width="50" height="50" relative="1" as="geometry">
            <mxPoint x="1125" y="391.75" as="sourcePoint" />
            <mxPoint x="1155" y="261.75" as="targetPoint" />
            <Array as="points">
              <mxPoint x="1255" y="391.75" />
            </Array>
          </mxGeometry>
        </mxCell>
        <mxCell id="LZv1H57CV4ByQzqz-5eu-37" value="&lt;div&gt;text[row][2] = &#39;/&#39;&lt;span style=&quot;background-color: initial;&quot;&gt;&amp;nbsp; &amp;nbsp; text[row][3] = &#39;\n&#39;&lt;/span&gt;&lt;/div&gt;" style="rounded=0;whiteSpace=wrap;html=1;" vertex="1" parent="1">
          <mxGeometry x="1075" y="331.75" width="100" height="40" as="geometry" />
        </mxCell>
        <mxCell id="LZv1H57CV4ByQzqz-5eu-38" value="" style="endArrow=none;html=1;rounded=0;exitX=0.5;exitY=1;exitDx=0;exitDy=0;entryX=0.5;entryY=0;entryDx=0;entryDy=0;" edge="1" parent="1" source="LZv1H57CV4ByQzqz-5eu-37" target="LZv1H57CV4ByQzqz-5eu-44">
          <mxGeometry width="50" height="50" relative="1" as="geometry">
            <mxPoint x="1090" y="310" as="sourcePoint" />
            <mxPoint x="1125" y="411.75" as="targetPoint" />
            <Array as="points">
              <mxPoint x="1125" y="391.75" />
            </Array>
          </mxGeometry>
        </mxCell>
        <mxCell id="LZv1H57CV4ByQzqz-5eu-39" value="" style="endArrow=none;html=1;rounded=0;entryX=0.5;entryY=1;entryDx=0;entryDy=0;exitX=0.5;exitY=0;exitDx=0;exitDy=0;" edge="1" parent="1" source="LZv1H57CV4ByQzqz-5eu-27" target="LZv1H57CV4ByQzqz-5eu-25">
          <mxGeometry width="50" height="50" relative="1" as="geometry">
            <mxPoint x="105" y="-190" as="sourcePoint" />
            <mxPoint x="155" y="-240" as="targetPoint" />
          </mxGeometry>
        </mxCell>
        <mxCell id="LZv1H57CV4ByQzqz-5eu-40" value="" style="endArrow=none;html=1;rounded=0;entryX=0.5;entryY=1;entryDx=0;entryDy=0;exitX=0.5;exitY=0;exitDx=0;exitDy=0;" edge="1" parent="1" source="LZv1H57CV4ByQzqz-5eu-24" target="LZv1H57CV4ByQzqz-5eu-28">
          <mxGeometry width="50" height="50" relative="1" as="geometry">
            <mxPoint x="415" y="-190" as="sourcePoint" />
            <mxPoint x="926" y="441.7500000000002" as="targetPoint" />
          </mxGeometry>
        </mxCell>
        <mxCell id="LZv1H57CV4ByQzqz-5eu-41" value="" style="endArrow=none;dashed=1;html=1;rounded=0;" edge="1" parent="1" target="LZv1H57CV4ByQzqz-5eu-43">
          <mxGeometry width="50" height="50" relative="1" as="geometry">
            <mxPoint x="1355" y="281.75" as="sourcePoint" />
            <mxPoint x="1355" y="281.75" as="targetPoint" />
          </mxGeometry>
        </mxCell>
        <mxCell id="LZv1H57CV4ByQzqz-5eu-42" value="" style="endArrow=none;dashed=1;html=1;rounded=0;" edge="1" parent="1">
          <mxGeometry width="50" height="50" relative="1" as="geometry">
            <mxPoint x="1045" y="161.75" as="sourcePoint" />
            <mxPoint x="1045" y="161.75" as="targetPoint" />
            <Array as="points">
              <mxPoint x="1355" y="161.75" />
              <mxPoint x="1355" y="491.75" />
              <mxPoint x="1045" y="491.75" />
            </Array>
          </mxGeometry>
        </mxCell>
        <mxCell id="LZv1H57CV4ByQzqz-5eu-43" value="обработка последней строки&lt;br&gt;многострочного&amp;nbsp;комментария" style="strokeWidth=2;html=1;shape=mxgraph.flowchart.annotation_2;align=left;labelPosition=right;pointerEvents=1;" vertex="1" parent="1">
          <mxGeometry x="1375" y="231.75" width="50" height="100" as="geometry" />
        </mxCell>
        <mxCell id="LZv1H57CV4ByQzqz-5eu-44" value="isStillComment = 0;" style="rounded=0;whiteSpace=wrap;html=1;" vertex="1" parent="1">
          <mxGeometry x="1065" y="411.75" width="120" height="40" as="geometry" />
        </mxCell>
        <mxCell id="LZv1H57CV4ByQzqz-5eu-45" value="" style="endArrow=none;html=1;rounded=0;exitX=0.5;exitY=1;exitDx=0;exitDy=0;" edge="1" parent="1" source="LZv1H57CV4ByQzqz-5eu-44">
          <mxGeometry width="50" height="50" relative="1" as="geometry">
            <mxPoint x="1205" y="401.75" as="sourcePoint" />
            <mxPoint x="925" y="471.75" as="targetPoint" />
            <Array as="points">
              <mxPoint x="1125" y="471.75" />
            </Array>
          </mxGeometry>
        </mxCell>
      </root>
    </mxGraphModel>
  </diagram>
  <diagram id="R-RAGRklO1uvBJ8PwiMC" name="close_comment">
    <mxGraphModel dx="804" dy="670" grid="1" gridSize="10" guides="1" tooltips="1" connect="1" arrows="1" fold="1" page="1" pageScale="1" pageWidth="827" pageHeight="1169" math="0" shadow="0">
      <root>
        <mxCell id="0" />
        <mxCell id="1" parent="0" />
        <mxCell id="mxKAKsQYV20LlOaw55Ix-1" value="close_comment&lt;br&gt;конец" style="rounded=1;whiteSpace=wrap;html=1;" parent="1" vertex="1">
          <mxGeometry x="165" y="220" width="250" height="50" as="geometry" />
        </mxCell>
        <mxCell id="mxKAKsQYV20LlOaw55Ix-2" value="close_comment(char text[][], &lt;br&gt;int row, int rows_lens[])&lt;br&gt;начало" style="rounded=1;whiteSpace=wrap;html=1;" parent="1" vertex="1">
          <mxGeometry x="160" y="35" width="260" height="50" as="geometry" />
        </mxCell>
        <mxCell id="mxKAKsQYV20LlOaw55Ix-3" value="" style="endArrow=none;html=1;rounded=0;entryX=0.5;entryY=1;entryDx=0;entryDy=0;exitX=0.5;exitY=0;exitDx=0;exitDy=0;" parent="1" source="mxKAKsQYV20LlOaw55Ix-4" target="mxKAKsQYV20LlOaw55Ix-2" edge="1">
          <mxGeometry width="50" height="50" relative="1" as="geometry">
            <mxPoint x="290" y="105" as="sourcePoint" />
            <mxPoint x="300" y="235" as="targetPoint" />
          </mxGeometry>
        </mxCell>
        <mxCell id="mxKAKsQYV20LlOaw55Ix-4" value="&lt;div&gt;&amp;nbsp; &amp;nbsp; &amp;nbsp;text[row][rows_lens[row] - 1] = &#39;&amp;nbsp; &#39;&amp;nbsp; &amp;nbsp; &amp;nbsp; &amp;nbsp; &amp;nbsp; &amp;nbsp;&lt;span style=&quot;background-color: initial;&quot;&gt;text[row][rows_lens[row]] = &#39;*&#39;&lt;/span&gt;&lt;/div&gt;&lt;div&gt;&amp;nbsp; &amp;nbsp; &amp;nbsp;text[row][rows_lens[row] + 1] = &#39;/&#39;&lt;/div&gt;&lt;div&gt;&amp;nbsp; &amp;nbsp; &amp;nbsp;text[row][rows_lens[row] + 2] = &#39;\n&#39;&lt;/div&gt;" style="rounded=0;whiteSpace=wrap;html=1;align=left;" parent="1" vertex="1">
          <mxGeometry x="185" y="130" width="210" height="70" as="geometry" />
        </mxCell>
        <mxCell id="mxKAKsQYV20LlOaw55Ix-5" value="" style="endArrow=none;html=1;rounded=0;entryX=0.5;entryY=1;entryDx=0;entryDy=0;exitX=0.5;exitY=0;exitDx=0;exitDy=0;" parent="1" source="mxKAKsQYV20LlOaw55Ix-1" target="mxKAKsQYV20LlOaw55Ix-4" edge="1">
          <mxGeometry width="50" height="50" relative="1" as="geometry">
            <mxPoint x="250" y="310" as="sourcePoint" />
            <mxPoint x="300" y="260" as="targetPoint" />
          </mxGeometry>
        </mxCell>
        <mxCell id="rFerIxotQjjzHVQpqZdO-1" value="" style="endArrow=none;dashed=1;html=1;rounded=0;entryX=1;entryY=0.5;entryDx=0;entryDy=0;exitX=0;exitY=0.5;exitDx=0;exitDy=0;exitPerimeter=0;" parent="1" source="rFerIxotQjjzHVQpqZdO-2" target="mxKAKsQYV20LlOaw55Ix-2" edge="1">
          <mxGeometry width="50" height="50" relative="1" as="geometry">
            <mxPoint x="460" y="60" as="sourcePoint" />
            <mxPoint x="430" y="55" as="targetPoint" />
          </mxGeometry>
        </mxCell>
        <mxCell id="rFerIxotQjjzHVQpqZdO-2" value="text[][] - текст из фала&lt;br style=&quot;border-color: var(--border-color);&quot;&gt;rows_lens[] -&amp;nbsp;Массив длин каждой из строк текста&lt;br style=&quot;border-color: var(--border-color);&quot;&gt;&lt;span style=&quot;border-color: var(--border-color); font-size: medium;&quot;&gt;&lt;/span&gt;row_numbers -&amp;nbsp;&lt;span style=&quot;border-color: var(--border-color); font-size: medium;&quot;&gt;&lt;/span&gt;Указатель на количество строк в тексте" style="strokeWidth=2;html=1;shape=mxgraph.flowchart.annotation_2;align=left;labelPosition=right;pointerEvents=1;" parent="1" vertex="1">
          <mxGeometry x="490" y="25" width="50" height="70" as="geometry" />
        </mxCell>
      </root>
    </mxGraphModel>
  </diagram>
  <diagram id="_j_QlNQC5aMtLOv7ccWL" name="write_text">
    <mxGraphModel dx="804" dy="1839" grid="1" gridSize="10" guides="1" tooltips="1" connect="1" arrows="1" fold="1" page="1" pageScale="1" pageWidth="827" pageHeight="1169" math="0" shadow="0">
      <root>
        <mxCell id="0" />
        <mxCell id="1" parent="0" />
        <mxCell id="2QrKlrcYD42YoSOVFwjj-1" value="write_text&lt;br&gt;конец" style="rounded=1;whiteSpace=wrap;html=1;" parent="1" vertex="1">
          <mxGeometry x="270" y="260" width="100" height="50" as="geometry" />
        </mxCell>
        <mxCell id="2QrKlrcYD42YoSOVFwjj-2" value="write_text(char text[][], FILE *file, int row_numbers)&lt;br&gt;начало" style="rounded=1;whiteSpace=wrap;html=1;" parent="1" vertex="1">
          <mxGeometry x="240" width="160" height="50" as="geometry" />
        </mxCell>
        <mxCell id="359_l73gwgZyDmyfRzvm-1" value="" style="endArrow=none;html=1;rounded=0;entryX=0.5;entryY=1;entryDx=0;entryDy=0;" parent="1" target="2QrKlrcYD42YoSOVFwjj-2" edge="1">
          <mxGeometry width="50" height="50" relative="1" as="geometry">
            <mxPoint x="320" y="80" as="sourcePoint" />
            <mxPoint x="430" y="180" as="targetPoint" />
          </mxGeometry>
        </mxCell>
        <mxCell id="359_l73gwgZyDmyfRzvm-2" value="row = 0" style="rounded=0;whiteSpace=wrap;html=1;" parent="1" vertex="1">
          <mxGeometry x="280" y="70" width="80" height="30" as="geometry" />
        </mxCell>
        <mxCell id="359_l73gwgZyDmyfRzvm-3" value="" style="endArrow=none;html=1;rounded=0;entryX=0.5;entryY=1;entryDx=0;entryDy=0;exitX=0.5;exitY=0;exitDx=0;exitDy=0;" parent="1" source="359_l73gwgZyDmyfRzvm-4" target="359_l73gwgZyDmyfRzvm-2" edge="1">
          <mxGeometry width="50" height="50" relative="1" as="geometry">
            <mxPoint x="320" y="140" as="sourcePoint" />
            <mxPoint x="430" y="180" as="targetPoint" />
            <Array as="points">
              <mxPoint x="320" y="130" />
            </Array>
          </mxGeometry>
        </mxCell>
        <mxCell id="359_l73gwgZyDmyfRzvm-4" value="row &amp;lt; row_numbers" style="rhombus;whiteSpace=wrap;html=1;" parent="1" vertex="1">
          <mxGeometry x="245" y="120" width="150" height="80" as="geometry" />
        </mxCell>
        <mxCell id="359_l73gwgZyDmyfRzvm-5" value="" style="endArrow=none;html=1;rounded=0;entryX=1;entryY=0.5;entryDx=0;entryDy=0;exitX=0.5;exitY=0;exitDx=0;exitDy=0;" parent="1" source="4PMmJz2y6wvJL8U4Q8tQ-3" target="359_l73gwgZyDmyfRzvm-4" edge="1">
          <mxGeometry width="50" height="50" relative="1" as="geometry">
            <mxPoint x="450" y="180" as="sourcePoint" />
            <mxPoint x="430" y="180" as="targetPoint" />
            <Array as="points">
              <mxPoint x="450" y="160" />
            </Array>
          </mxGeometry>
        </mxCell>
        <mxCell id="359_l73gwgZyDmyfRzvm-6" value="да" style="text;html=1;align=center;verticalAlign=middle;resizable=0;points=[];autosize=1;strokeColor=none;fillColor=none;" parent="1" vertex="1">
          <mxGeometry x="400" y="128" width="40" height="30" as="geometry" />
        </mxCell>
        <mxCell id="359_l73gwgZyDmyfRzvm-7" value="" style="endArrow=none;html=1;rounded=0;entryX=0.5;entryY=1;entryDx=0;entryDy=0;exitX=0.5;exitY=0;exitDx=0;exitDy=0;" parent="1" source="2QrKlrcYD42YoSOVFwjj-1" target="359_l73gwgZyDmyfRzvm-4" edge="1">
          <mxGeometry width="50" height="50" relative="1" as="geometry">
            <mxPoint x="320" y="260" as="sourcePoint" />
            <mxPoint x="430" y="250" as="targetPoint" />
          </mxGeometry>
        </mxCell>
        <mxCell id="4PMmJz2y6wvJL8U4Q8tQ-3" value="вывод/(запись в file)&lt;br&gt;text[row]" style="shape=parallelogram;perimeter=parallelogramPerimeter;whiteSpace=wrap;html=1;fixedSize=1;" parent="1" vertex="1">
          <mxGeometry x="375" y="180" width="150" height="50" as="geometry" />
        </mxCell>
        <mxCell id="4PMmJz2y6wvJL8U4Q8tQ-4" value="" style="endArrow=none;dashed=1;html=1;rounded=0;exitX=1;exitY=0.5;exitDx=0;exitDy=0;" parent="1" source="2QrKlrcYD42YoSOVFwjj-2" target="yqTB6DZvmvf8t9v94gOL-1" edge="1">
          <mxGeometry width="50" height="50" relative="1" as="geometry">
            <mxPoint x="380" y="300" as="sourcePoint" />
            <mxPoint x="470" y="25" as="targetPoint" />
          </mxGeometry>
        </mxCell>
        <mxCell id="4PMmJz2y6wvJL8U4Q8tQ-8" value="" style="endArrow=none;html=1;rounded=0;entryX=0.5;entryY=1;entryDx=0;entryDy=0;exitX=0.5;exitY=0;exitDx=0;exitDy=0;" parent="1" source="4PMmJz2y6wvJL8U4Q8tQ-10" target="4PMmJz2y6wvJL8U4Q8tQ-3" edge="1">
          <mxGeometry width="50" height="50" relative="1" as="geometry">
            <mxPoint x="450" y="240" as="sourcePoint" />
            <mxPoint x="450" y="220" as="targetPoint" />
          </mxGeometry>
        </mxCell>
        <mxCell id="4PMmJz2y6wvJL8U4Q8tQ-10" value="row++" style="rounded=0;whiteSpace=wrap;html=1;" parent="1" vertex="1">
          <mxGeometry x="390" y="250" width="120" height="40" as="geometry" />
        </mxCell>
        <mxCell id="4PMmJz2y6wvJL8U4Q8tQ-11" value="" style="endArrow=classic;html=1;rounded=0;exitX=0.5;exitY=1;exitDx=0;exitDy=0;" parent="1" source="4PMmJz2y6wvJL8U4Q8tQ-10" edge="1">
          <mxGeometry width="50" height="50" relative="1" as="geometry">
            <mxPoint x="380" y="300" as="sourcePoint" />
            <mxPoint x="320" y="110" as="targetPoint" />
            <Array as="points">
              <mxPoint x="450" y="310" />
              <mxPoint x="540" y="310" />
              <mxPoint x="540" y="110" />
            </Array>
          </mxGeometry>
        </mxCell>
        <mxCell id="yqTB6DZvmvf8t9v94gOL-1" value="text[][] - текст из фала&lt;br&gt;file - Файл для записи пользователем или файл вывода&lt;br style=&quot;border-color: var(--border-color);&quot;&gt;в кнсоли&amp;nbsp;stdout&lt;br style=&quot;border-color: var(--border-color);&quot;&gt;row_numbers -&amp;nbsp;&lt;span style=&quot;border-color: var(--border-color); font-size: medium;&quot;&gt;&lt;/span&gt;Указатель на количество строк в тексте" style="strokeWidth=2;html=1;shape=mxgraph.flowchart.annotation_2;align=left;labelPosition=right;pointerEvents=1;" parent="1" vertex="1">
          <mxGeometry x="440" y="-7.5" width="50" height="65" as="geometry" />
        </mxCell>
      </root>
    </mxGraphModel>
  </diagram>
  <diagram id="2PbXAd9zd_gFC4Fq1W9z" name="save_file">
    <mxGraphModel dx="804" dy="670" grid="1" gridSize="10" guides="1" tooltips="1" connect="1" arrows="1" fold="1" page="1" pageScale="1" pageWidth="827" pageHeight="1169" math="0" shadow="0">
      <root>
        <mxCell id="0" />
        <mxCell id="1" parent="0" />
        <mxCell id="Nk2_PIZjA3Hcqo_mnnjT-1" value="save_file(char text[][], int row_numbers)&lt;br&gt;начало" style="rounded=1;whiteSpace=wrap;html=1;" parent="1" vertex="1">
          <mxGeometry x="200" width="220" height="50" as="geometry" />
        </mxCell>
        <mxCell id="Nk2_PIZjA3Hcqo_mnnjT-2" value="" style="endArrow=none;html=1;rounded=0;entryX=0.5;entryY=1;entryDx=0;entryDy=0;exitX=0.5;exitY=0;exitDx=0;exitDy=0;" parent="1" source="KL6kGGO_sJDy_sieNs2R-1" target="vsE1U0vUeeQZRLWfSllL-1" edge="1">
          <mxGeometry width="50" height="50" relative="1" as="geometry">
            <mxPoint x="310" y="210" as="sourcePoint" />
            <mxPoint x="310" y="160" as="targetPoint" />
          </mxGeometry>
        </mxCell>
        <mxCell id="KL6kGGO_sJDy_sieNs2R-1" value="ввод: out_flag" style="shape=parallelogram;perimeter=parallelogramPerimeter;whiteSpace=wrap;html=1;fixedSize=1;" parent="1" vertex="1">
          <mxGeometry x="250" y="160" width="120" height="60" as="geometry" />
        </mxCell>
        <mxCell id="KL6kGGO_sJDy_sieNs2R-2" value="" style="endArrow=none;html=1;rounded=0;entryX=0.5;entryY=1;entryDx=0;entryDy=0;exitX=0.5;exitY=0;exitDx=0;exitDy=0;" parent="1" source="KL6kGGO_sJDy_sieNs2R-3" target="KL6kGGO_sJDy_sieNs2R-1" edge="1">
          <mxGeometry width="50" height="50" relative="1" as="geometry">
            <mxPoint x="310" y="240" as="sourcePoint" />
            <mxPoint x="430" y="370" as="targetPoint" />
          </mxGeometry>
        </mxCell>
        <mxCell id="KL6kGGO_sJDy_sieNs2R-3" value="out_flag == &#39;y&#39; || &lt;br&gt;out_flag == &#39;Y&#39;" style="rhombus;whiteSpace=wrap;html=1;" parent="1" vertex="1">
          <mxGeometry x="230" y="240" width="160" height="80" as="geometry" />
        </mxCell>
        <mxCell id="KL6kGGO_sJDy_sieNs2R-4" value="" style="endArrow=none;html=1;rounded=0;entryX=1;entryY=0.5;entryDx=0;entryDy=0;exitX=0.5;exitY=0;exitDx=0;exitDy=0;" parent="1" source="BjzqTm-mZ1CUZymByqcu-1" target="KL6kGGO_sJDy_sieNs2R-3" edge="1">
          <mxGeometry width="50" height="50" relative="1" as="geometry">
            <mxPoint x="510" y="290" as="sourcePoint" />
            <mxPoint x="390" y="350" as="targetPoint" />
            <Array as="points">
              <mxPoint x="500" y="280" />
            </Array>
          </mxGeometry>
        </mxCell>
        <mxCell id="KL6kGGO_sJDy_sieNs2R-5" value="ввод:&lt;br&gt;output_file_name" style="shape=parallelogram;perimeter=parallelogramPerimeter;whiteSpace=wrap;html=1;fixedSize=1;" parent="1" vertex="1">
          <mxGeometry x="440" y="380" width="120" height="60" as="geometry" />
        </mxCell>
        <mxCell id="KL6kGGO_sJDy_sieNs2R-6" value="" style="endArrow=none;html=1;rounded=0;entryX=0.5;entryY=1;entryDx=0;entryDy=0;exitX=0.5;exitY=0;exitDx=0;exitDy=0;" parent="1" source="KL6kGGO_sJDy_sieNs2R-8" target="KL6kGGO_sJDy_sieNs2R-5" edge="1">
          <mxGeometry width="50" height="50" relative="1" as="geometry">
            <mxPoint x="440" y="460" as="sourcePoint" />
            <mxPoint x="430" y="450" as="targetPoint" />
          </mxGeometry>
        </mxCell>
        <mxCell id="KL6kGGO_sJDy_sieNs2R-7" value="" style="endArrow=none;html=1;rounded=0;entryX=0.5;entryY=1;entryDx=0;entryDy=0;exitX=0.5;exitY=0;exitDx=0;exitDy=0;" parent="1" source="KL6kGGO_sJDy_sieNs2R-9" target="KL6kGGO_sJDy_sieNs2R-8" edge="1">
          <mxGeometry width="50" height="50" relative="1" as="geometry">
            <mxPoint x="440" y="550" as="sourcePoint" />
            <mxPoint x="150" y="570" as="targetPoint" />
          </mxGeometry>
        </mxCell>
        <mxCell id="KL6kGGO_sJDy_sieNs2R-8" value="&lt;div&gt;len = strlen(output_file_name)&lt;/div&gt;&lt;div&gt;&lt;span style=&quot;background-color: initial;&quot;&gt;output_file_name[len - 1] = &#39;\0&#39;&lt;/span&gt;&lt;/div&gt;" style="rounded=0;whiteSpace=wrap;html=1;" parent="1" vertex="1">
          <mxGeometry x="410" y="460" width="180" height="60" as="geometry" />
        </mxCell>
        <mxCell id="KL6kGGO_sJDy_sieNs2R-9" value="outfile != NULL" style="rhombus;whiteSpace=wrap;html=1;" parent="1" vertex="1">
          <mxGeometry x="425.5" y="590" width="149" height="60" as="geometry" />
        </mxCell>
        <mxCell id="KL6kGGO_sJDy_sieNs2R-10" value="да" style="text;html=1;align=center;verticalAlign=middle;resizable=0;points=[];autosize=1;strokeColor=none;fillColor=none;" parent="1" vertex="1">
          <mxGeometry x="390" y="238" width="40" height="30" as="geometry" />
        </mxCell>
        <mxCell id="KL6kGGO_sJDy_sieNs2R-11" value="" style="endArrow=none;html=1;rounded=0;entryX=0.5;entryY=1;entryDx=0;entryDy=0;exitX=0.5;exitY=0;exitDx=0;exitDy=0;" parent="1" source="VU4wOVCnnn4mURzfwFlf-4" target="KL6kGGO_sJDy_sieNs2R-3" edge="1">
          <mxGeometry width="50" height="50" relative="1" as="geometry">
            <mxPoint x="310" y="860" as="sourcePoint" />
            <mxPoint x="310" y="390" as="targetPoint" />
          </mxGeometry>
        </mxCell>
        <mxCell id="KL6kGGO_sJDy_sieNs2R-12" value="" style="endArrow=none;html=1;rounded=0;entryX=0.5;entryY=1;entryDx=0;entryDy=0;exitX=0.5;exitY=0;exitDx=0;exitDy=0;" parent="1" source="VU4wOVCnnn4mURzfwFlf-2" target="KL6kGGO_sJDy_sieNs2R-9" edge="1">
          <mxGeometry width="50" height="50" relative="1" as="geometry">
            <mxPoint x="502" y="700" as="sourcePoint" />
            <mxPoint x="470" y="660" as="targetPoint" />
          </mxGeometry>
        </mxCell>
        <mxCell id="KL6kGGO_sJDy_sieNs2R-13" value="" style="endArrow=none;html=1;rounded=0;entryX=1;entryY=0.5;entryDx=0;entryDy=0;exitX=0.5;exitY=0;exitDx=0;exitDy=0;" parent="1" source="4_nhWKT7lA_mN_NP4BWh-1" target="KL6kGGO_sJDy_sieNs2R-9" edge="1">
          <mxGeometry width="50" height="50" relative="1" as="geometry">
            <mxPoint x="660" y="660" as="sourcePoint" />
            <mxPoint x="470" y="660" as="targetPoint" />
            <Array as="points">
              <mxPoint x="660" y="620" />
            </Array>
          </mxGeometry>
        </mxCell>
        <mxCell id="KL6kGGO_sJDy_sieNs2R-14" value="да" style="text;html=1;align=center;verticalAlign=middle;resizable=0;points=[];autosize=1;strokeColor=none;fillColor=none;" parent="1" vertex="1">
          <mxGeometry x="620" y="590" width="40" height="30" as="geometry" />
        </mxCell>
        <mxCell id="4_nhWKT7lA_mN_NP4BWh-1" value="write_text(text, outfile, row_numbers);" style="shape=process;whiteSpace=wrap;html=1;backgroundOutline=1;size=0.047619047619047616;" parent="1" vertex="1">
          <mxGeometry x="569" y="640" width="180" height="40" as="geometry" />
        </mxCell>
        <mxCell id="4_nhWKT7lA_mN_NP4BWh-2" value="" style="endArrow=none;html=1;rounded=0;exitX=0.5;exitY=1;exitDx=0;exitDy=0;entryX=0.5;entryY=0;entryDx=0;entryDy=0;" parent="1" source="4_nhWKT7lA_mN_NP4BWh-1" target="K4WlXwAacZAzK8QlXMQU-1" edge="1">
          <mxGeometry width="50" height="50" relative="1" as="geometry">
            <mxPoint x="610" y="580" as="sourcePoint" />
            <mxPoint x="660" y="740" as="targetPoint" />
          </mxGeometry>
        </mxCell>
        <mxCell id="K4WlXwAacZAzK8QlXMQU-1" value="fclose(outfile) == EOF" style="rhombus;whiteSpace=wrap;html=1;" parent="1" vertex="1">
          <mxGeometry x="589" y="700" width="140" height="60" as="geometry" />
        </mxCell>
        <mxCell id="K4WlXwAacZAzK8QlXMQU-2" value="" style="endArrow=none;html=1;rounded=0;exitX=1;exitY=0.5;exitDx=0;exitDy=0;" parent="1" source="K4WlXwAacZAzK8QlXMQU-1" target="K4WlXwAacZAzK8QlXMQU-4" edge="1">
          <mxGeometry width="50" height="50" relative="1" as="geometry">
            <mxPoint x="730" y="770" as="sourcePoint" />
            <mxPoint x="780" y="780" as="targetPoint" />
            <Array as="points">
              <mxPoint x="810" y="730" />
            </Array>
          </mxGeometry>
        </mxCell>
        <mxCell id="K4WlXwAacZAzK8QlXMQU-3" value="да" style="text;html=1;align=center;verticalAlign=middle;resizable=0;points=[];autosize=1;strokeColor=none;fillColor=none;" parent="1" vertex="1">
          <mxGeometry x="719" y="700" width="40" height="30" as="geometry" />
        </mxCell>
        <mxCell id="K4WlXwAacZAzK8QlXMQU-4" value="вывод:&lt;br&gt;Output closing error" style="shape=parallelogram;perimeter=parallelogramPerimeter;whiteSpace=wrap;html=1;fixedSize=1;" parent="1" vertex="1">
          <mxGeometry x="740" y="790" width="140" height="50" as="geometry" />
        </mxCell>
        <mxCell id="K4WlXwAacZAzK8QlXMQU-5" value="" style="endArrow=none;html=1;rounded=0;entryX=0.5;entryY=1;entryDx=0;entryDy=0;exitX=0.5;exitY=0;exitDx=0;exitDy=0;" parent="1" source="K4WlXwAacZAzK8QlXMQU-6" target="K4WlXwAacZAzK8QlXMQU-1" edge="1">
          <mxGeometry width="50" height="50" relative="1" as="geometry">
            <mxPoint x="659" y="820" as="sourcePoint" />
            <mxPoint x="740" y="660" as="targetPoint" />
          </mxGeometry>
        </mxCell>
        <mxCell id="K4WlXwAacZAzK8QlXMQU-6" value="вывод:&lt;br&gt;Successfully preserved" style="shape=parallelogram;perimeter=parallelogramPerimeter;whiteSpace=wrap;html=1;fixedSize=1;" parent="1" vertex="1">
          <mxGeometry x="599" y="780" width="120" height="60" as="geometry" />
        </mxCell>
        <mxCell id="K4WlXwAacZAzK8QlXMQU-7" value="" style="endArrow=none;html=1;rounded=0;exitX=0.5;exitY=1;exitDx=0;exitDy=0;" parent="1" source="K4WlXwAacZAzK8QlXMQU-6" edge="1">
          <mxGeometry width="50" height="50" relative="1" as="geometry">
            <mxPoint x="690" y="830" as="sourcePoint" />
            <mxPoint x="660" y="860" as="targetPoint" />
          </mxGeometry>
        </mxCell>
        <mxCell id="K4WlXwAacZAzK8QlXMQU-8" value="" style="endArrow=none;html=1;rounded=0;entryX=0.5;entryY=1;entryDx=0;entryDy=0;" parent="1" target="K4WlXwAacZAzK8QlXMQU-4" edge="1">
          <mxGeometry width="50" height="50" relative="1" as="geometry">
            <mxPoint x="500" y="860" as="sourcePoint" />
            <mxPoint x="740" y="780" as="targetPoint" />
            <Array as="points">
              <mxPoint x="810" y="860" />
            </Array>
          </mxGeometry>
        </mxCell>
        <mxCell id="VU4wOVCnnn4mURzfwFlf-1" value="" style="endArrow=none;html=1;rounded=0;entryX=0.5;entryY=1;entryDx=0;entryDy=0;" parent="1" target="VU4wOVCnnn4mURzfwFlf-2" edge="1">
          <mxGeometry width="50" height="50" relative="1" as="geometry">
            <mxPoint x="502" y="790" as="sourcePoint" />
            <mxPoint x="490" y="780" as="targetPoint" />
          </mxGeometry>
        </mxCell>
        <mxCell id="VU4wOVCnnn4mURzfwFlf-2" value="вывод:&lt;br&gt;Output opening&lt;br&gt;&amp;nbsp;error" style="shape=parallelogram;perimeter=parallelogramPerimeter;whiteSpace=wrap;html=1;fixedSize=1;" parent="1" vertex="1">
          <mxGeometry x="440" y="785" width="120" height="60" as="geometry" />
        </mxCell>
        <mxCell id="VU4wOVCnnn4mURzfwFlf-3" value="" style="endArrow=none;html=1;rounded=0;entryX=0.5;entryY=1;entryDx=0;entryDy=0;" parent="1" target="VU4wOVCnnn4mURzfwFlf-2" edge="1">
          <mxGeometry width="50" height="50" relative="1" as="geometry">
            <mxPoint x="310" y="880" as="sourcePoint" />
            <mxPoint x="670" y="730" as="targetPoint" />
            <Array as="points">
              <mxPoint x="500" y="880" />
            </Array>
          </mxGeometry>
        </mxCell>
        <mxCell id="VU4wOVCnnn4mURzfwFlf-4" value="save_file&lt;br style=&quot;border-color: var(--border-color);&quot;&gt;конец" style="rounded=1;whiteSpace=wrap;html=1;" parent="1" vertex="1">
          <mxGeometry x="250" y="900" width="120" height="40" as="geometry" />
        </mxCell>
        <mxCell id="qcoWKqAfcKWD2hBUr2Ap-1" value="outfile = fopen(output_file_name, &quot;w&quot;)" style="rounded=0;whiteSpace=wrap;html=1;" parent="1" vertex="1">
          <mxGeometry x="390" y="540" width="230" height="30" as="geometry" />
        </mxCell>
        <mxCell id="c5X8y67NreRn6D3Zr7DG-1" value="" style="endArrow=none;dashed=1;html=1;rounded=0;entryX=1;entryY=0.5;entryDx=0;entryDy=0;exitX=0;exitY=0.5;exitDx=0;exitDy=0;exitPerimeter=0;" parent="1" source="c5X8y67NreRn6D3Zr7DG-2" target="Nk2_PIZjA3Hcqo_mnnjT-1" edge="1">
          <mxGeometry width="50" height="50" relative="1" as="geometry">
            <mxPoint x="500" y="25" as="sourcePoint" />
            <mxPoint x="590" y="340" as="targetPoint" />
          </mxGeometry>
        </mxCell>
        <mxCell id="c5X8y67NreRn6D3Zr7DG-2" value="text[][] - текст из фала&lt;br style=&quot;border-color: var(--border-color);&quot;&gt;row_numbers -&amp;nbsp;Указатель на количество строк в тексте" style="strokeWidth=2;html=1;shape=mxgraph.flowchart.annotation_2;align=left;labelPosition=right;pointerEvents=1;" parent="1" vertex="1">
          <mxGeometry x="475" y="1.25" width="50" height="47.5" as="geometry" />
        </mxCell>
        <mxCell id="vsE1U0vUeeQZRLWfSllL-1" value="&lt;div style=&quot;&quot;&gt;вывод:&lt;/div&gt;&lt;div style=&quot;text-align: justify;&quot;&gt;&lt;span style=&quot;background-color: initial;&quot;&gt;Do you want save result in file?&lt;/span&gt;&lt;/div&gt;&lt;div style=&quot;text-align: justify;&quot;&gt;&lt;span style=&quot;background-color: initial;&quot;&gt;Yes/No (y/n):&lt;/span&gt;&lt;/div&gt;" style="shape=parallelogram;perimeter=parallelogramPerimeter;whiteSpace=wrap;html=1;fixedSize=1;" parent="1" vertex="1">
          <mxGeometry x="210" y="70" width="200" height="70" as="geometry" />
        </mxCell>
        <mxCell id="vsE1U0vUeeQZRLWfSllL-2" value="" style="endArrow=none;html=1;rounded=0;entryX=0.5;entryY=1;entryDx=0;entryDy=0;exitX=0.5;exitY=0;exitDx=0;exitDy=0;" parent="1" source="vsE1U0vUeeQZRLWfSllL-1" target="Nk2_PIZjA3Hcqo_mnnjT-1" edge="1">
          <mxGeometry width="50" height="50" relative="1" as="geometry">
            <mxPoint x="560" y="240" as="sourcePoint" />
            <mxPoint x="610" y="190" as="targetPoint" />
          </mxGeometry>
        </mxCell>
        <mxCell id="BjzqTm-mZ1CUZymByqcu-1" value="вывод:&lt;br&gt;Enter your filename:&amp;nbsp;" style="shape=parallelogram;perimeter=parallelogramPerimeter;whiteSpace=wrap;html=1;fixedSize=1;" parent="1" vertex="1">
          <mxGeometry x="430" y="300" width="140" height="60" as="geometry" />
        </mxCell>
        <mxCell id="BjzqTm-mZ1CUZymByqcu-2" value="" style="endArrow=none;html=1;rounded=0;entryX=0.5;entryY=1;entryDx=0;entryDy=0;exitX=0.5;exitY=0;exitDx=0;exitDy=0;" parent="1" source="KL6kGGO_sJDy_sieNs2R-5" target="BjzqTm-mZ1CUZymByqcu-1" edge="1">
          <mxGeometry width="50" height="50" relative="1" as="geometry">
            <mxPoint x="600" y="650" as="sourcePoint" />
            <mxPoint x="650" y="600" as="targetPoint" />
          </mxGeometry>
        </mxCell>
      </root>
    </mxGraphModel>
  </diagram>
  <diagram id="iaiwTHFmoxEtlR_j8ntA" name="run_with_console_input">
    <mxGraphModel dx="804" dy="670" grid="1" gridSize="10" guides="1" tooltips="1" connect="1" arrows="1" fold="1" page="1" pageScale="1" pageWidth="827" pageHeight="1169" math="0" shadow="0">
      <root>
        <mxCell id="0" />
        <mxCell id="1" parent="0" />
        <mxCell id="ns3OoiTwSQN_W1y80Q9o-1" value="run_With_Console_Input()&lt;br&gt;начало" style="rounded=1;whiteSpace=wrap;html=1;" parent="1" vertex="1">
          <mxGeometry x="340" y="80" width="180" height="40" as="geometry" />
        </mxCell>
        <mxCell id="ns3OoiTwSQN_W1y80Q9o-2" value="run_With_Console_Input&lt;br style=&quot;border-color: var(--border-color);&quot;&gt;конец" style="rounded=1;whiteSpace=wrap;html=1;" parent="1" vertex="1">
          <mxGeometry x="340" y="280" width="180" height="40" as="geometry" />
        </mxCell>
        <mxCell id="oT-pCitBIU9-Ocg-jh30-3" value="" style="endArrow=none;html=1;rounded=0;exitX=0.5;exitY=0;exitDx=0;exitDy=0;" parent="1" source="oT-pCitBIU9-Ocg-jh30-6" target="xuLwsGH_w1gejDN0QygX-1" edge="1">
          <mxGeometry width="50" height="50" relative="1" as="geometry">
            <mxPoint x="430" y="180" as="sourcePoint" />
            <mxPoint x="430" y="200" as="targetPoint" />
          </mxGeometry>
        </mxCell>
        <mxCell id="oT-pCitBIU9-Ocg-jh30-6" value="text_processing(stdin)" style="shape=process;whiteSpace=wrap;html=1;backgroundOutline=1;size=0.06754594594594547;" parent="1" vertex="1">
          <mxGeometry x="314.38" y="220" width="231.25" height="40" as="geometry" />
        </mxCell>
        <mxCell id="oT-pCitBIU9-Ocg-jh30-7" value="" style="endArrow=none;html=1;rounded=0;entryX=0.5;entryY=1;entryDx=0;entryDy=0;exitX=0.5;exitY=0;exitDx=0;exitDy=0;" parent="1" source="ns3OoiTwSQN_W1y80Q9o-2" target="oT-pCitBIU9-Ocg-jh30-6" edge="1">
          <mxGeometry width="50" height="50" relative="1" as="geometry">
            <mxPoint x="370" y="280" as="sourcePoint" />
            <mxPoint x="420" y="230" as="targetPoint" />
          </mxGeometry>
        </mxCell>
        <mxCell id="xuLwsGH_w1gejDN0QygX-1" value="ввод:&lt;br&gt;&lt;div style=&quot;text-align: justify;&quot;&gt;&lt;span style=&quot;background-color: initial;&quot;&gt;Input your text&lt;/span&gt;&lt;/div&gt;&lt;div style=&quot;text-align: justify;&quot;&gt;&lt;span style=&quot;background-color: initial;&quot;&gt;To end text input, press Ctrl+D (UNIX-like systems) or Ctrl+Z (Windows).&lt;/span&gt;&lt;/div&gt;" style="shape=parallelogram;perimeter=parallelogramPerimeter;whiteSpace=wrap;html=1;fixedSize=1;" parent="1" vertex="1">
          <mxGeometry x="220" y="140" width="420" height="60" as="geometry" />
        </mxCell>
        <mxCell id="xuLwsGH_w1gejDN0QygX-2" value="" style="endArrow=none;html=1;rounded=0;entryX=0.5;entryY=1;entryDx=0;entryDy=0;exitX=0.5;exitY=0;exitDx=0;exitDy=0;" parent="1" source="xuLwsGH_w1gejDN0QygX-1" target="ns3OoiTwSQN_W1y80Q9o-1" edge="1">
          <mxGeometry width="50" height="50" relative="1" as="geometry">
            <mxPoint x="390" y="370" as="sourcePoint" />
            <mxPoint x="430" y="180" as="targetPoint" />
          </mxGeometry>
        </mxCell>
      </root>
    </mxGraphModel>
  </diagram>
  <diagram id="iqZWijFcq1aLIM_6OuDp" name="Страница — 13">
    <mxGraphModel dx="1149" dy="957" grid="1" gridSize="10" guides="1" tooltips="1" connect="1" arrows="1" fold="1" page="1" pageScale="1" pageWidth="827" pageHeight="1169" math="0" shadow="0">
      <root>
        <mxCell id="0" />
        <mxCell id="1" parent="0" />
        <mxCell id="P0zmnYXHMHFCvTIYEJyt-1" value="main" style="ellipse;whiteSpace=wrap;html=1;" vertex="1" parent="1">
          <mxGeometry x="260" y="100" width="120" height="60" as="geometry" />
        </mxCell>
        <mxCell id="P0zmnYXHMHFCvTIYEJyt-3" value="menu" style="ellipse;whiteSpace=wrap;html=1;" vertex="1" parent="1">
          <mxGeometry x="260" y="200" width="120" height="50" as="geometry" />
        </mxCell>
        <mxCell id="P0zmnYXHMHFCvTIYEJyt-5" value="help" style="ellipse;whiteSpace=wrap;html=1;" vertex="1" parent="1">
          <mxGeometry x="90" y="315" width="120" height="60" as="geometry" />
        </mxCell>
        <mxCell id="P0zmnYXHMHFCvTIYEJyt-7" value="&lt;span style=&quot;text-align: start;&quot;&gt;&lt;font style=&quot;font-size: 12px;&quot;&gt;run_With_File_Input&lt;/font&gt;&lt;/span&gt;&lt;span style=&quot;font-size: medium; text-align: start;&quot;&gt;&lt;/span&gt;" style="ellipse;whiteSpace=wrap;html=1;" vertex="1" parent="1">
          <mxGeometry x="247.5" y="310" width="145" height="70" as="geometry" />
        </mxCell>
        <mxCell id="P0zmnYXHMHFCvTIYEJyt-10" value="run_Console_File_Input" style="ellipse;whiteSpace=wrap;html=1;" vertex="1" parent="1">
          <mxGeometry x="440" y="315" width="140" height="60" as="geometry" />
        </mxCell>
        <mxCell id="P0zmnYXHMHFCvTIYEJyt-13" value="text_processing" style="ellipse;whiteSpace=wrap;html=1;" vertex="1" parent="1">
          <mxGeometry x="450" y="410" width="120" height="60" as="geometry" />
        </mxCell>
        <mxCell id="P0zmnYXHMHFCvTIYEJyt-14" value="text_processing" style="ellipse;whiteSpace=wrap;html=1;" vertex="1" parent="1">
          <mxGeometry x="260" y="420" width="120" height="60" as="geometry" />
        </mxCell>
        <mxCell id="P0zmnYXHMHFCvTIYEJyt-15" value="text_processing" style="ellipse;whiteSpace=wrap;html=1;" vertex="1" parent="1">
          <mxGeometry x="260" y="520" width="120" height="70" as="geometry" />
        </mxCell>
        <mxCell id="P0zmnYXHMHFCvTIYEJyt-17" value="get_text" style="ellipse;whiteSpace=wrap;html=1;" vertex="1" parent="1">
          <mxGeometry x="40" y="585" width="120" height="80" as="geometry" />
        </mxCell>
        <mxCell id="P0zmnYXHMHFCvTIYEJyt-19" value="write_text" style="ellipse;whiteSpace=wrap;html=1;" vertex="1" parent="1">
          <mxGeometry x="340" y="630" width="120" height="80" as="geometry" />
        </mxCell>
        <mxCell id="P0zmnYXHMHFCvTIYEJyt-21" value="comment_replece" style="ellipse;whiteSpace=wrap;html=1;" vertex="1" parent="1">
          <mxGeometry x="190" y="630" width="120" height="80" as="geometry" />
        </mxCell>
        <mxCell id="P0zmnYXHMHFCvTIYEJyt-23" value="save_file" style="ellipse;whiteSpace=wrap;html=1;" vertex="1" parent="1">
          <mxGeometry x="470" y="585" width="120" height="80" as="geometry" />
        </mxCell>
        <mxCell id="P0zmnYXHMHFCvTIYEJyt-25" value="close_comment" style="ellipse;whiteSpace=wrap;html=1;" vertex="1" parent="1">
          <mxGeometry x="190" y="740" width="120" height="80" as="geometry" />
        </mxCell>
        <mxCell id="P0zmnYXHMHFCvTIYEJyt-28" value="write_text" style="ellipse;whiteSpace=wrap;html=1;" vertex="1" parent="1">
          <mxGeometry x="470" y="690" width="120" height="80" as="geometry" />
        </mxCell>
        <mxCell id="P0zmnYXHMHFCvTIYEJyt-29" value="" style="endArrow=classic;html=1;rounded=0;exitX=0.5;exitY=1;exitDx=0;exitDy=0;entryX=0.5;entryY=0;entryDx=0;entryDy=0;" edge="1" parent="1" source="P0zmnYXHMHFCvTIYEJyt-3" target="P0zmnYXHMHFCvTIYEJyt-7">
          <mxGeometry width="50" height="50" relative="1" as="geometry">
            <mxPoint x="230" y="550" as="sourcePoint" />
            <mxPoint x="280" y="500" as="targetPoint" />
          </mxGeometry>
        </mxCell>
        <mxCell id="P0zmnYXHMHFCvTIYEJyt-30" value="" style="endArrow=classic;html=1;rounded=0;exitX=0.5;exitY=1;exitDx=0;exitDy=0;entryX=0.5;entryY=0;entryDx=0;entryDy=0;" edge="1" parent="1" source="P0zmnYXHMHFCvTIYEJyt-7" target="P0zmnYXHMHFCvTIYEJyt-14">
          <mxGeometry width="50" height="50" relative="1" as="geometry">
            <mxPoint x="230" y="550" as="sourcePoint" />
            <mxPoint x="280" y="500" as="targetPoint" />
          </mxGeometry>
        </mxCell>
        <mxCell id="P0zmnYXHMHFCvTIYEJyt-31" value="" style="endArrow=classic;html=1;rounded=0;exitX=0;exitY=1;exitDx=0;exitDy=0;entryX=0.5;entryY=0;entryDx=0;entryDy=0;" edge="1" parent="1" source="P0zmnYXHMHFCvTIYEJyt-3" target="P0zmnYXHMHFCvTIYEJyt-5">
          <mxGeometry width="50" height="50" relative="1" as="geometry">
            <mxPoint x="230" y="550" as="sourcePoint" />
            <mxPoint x="280" y="500" as="targetPoint" />
          </mxGeometry>
        </mxCell>
        <mxCell id="P0zmnYXHMHFCvTIYEJyt-32" value="" style="endArrow=classic;html=1;rounded=0;exitX=1;exitY=1;exitDx=0;exitDy=0;entryX=0.5;entryY=0;entryDx=0;entryDy=0;" edge="1" parent="1" source="P0zmnYXHMHFCvTIYEJyt-3" target="P0zmnYXHMHFCvTIYEJyt-10">
          <mxGeometry width="50" height="50" relative="1" as="geometry">
            <mxPoint x="230" y="550" as="sourcePoint" />
            <mxPoint x="280" y="500" as="targetPoint" />
          </mxGeometry>
        </mxCell>
        <mxCell id="P0zmnYXHMHFCvTIYEJyt-33" value="" style="endArrow=classic;html=1;rounded=0;exitX=0.5;exitY=1;exitDx=0;exitDy=0;entryX=0.5;entryY=0;entryDx=0;entryDy=0;" edge="1" parent="1" source="P0zmnYXHMHFCvTIYEJyt-10" target="P0zmnYXHMHFCvTIYEJyt-13">
          <mxGeometry width="50" height="50" relative="1" as="geometry">
            <mxPoint x="230" y="550" as="sourcePoint" />
            <mxPoint x="280" y="500" as="targetPoint" />
          </mxGeometry>
        </mxCell>
        <mxCell id="P0zmnYXHMHFCvTIYEJyt-34" value="" style="endArrow=classic;html=1;rounded=0;exitX=0.5;exitY=1;exitDx=0;exitDy=0;" edge="1" parent="1" source="P0zmnYXHMHFCvTIYEJyt-1">
          <mxGeometry width="50" height="50" relative="1" as="geometry">
            <mxPoint x="230" y="550" as="sourcePoint" />
            <mxPoint x="320" y="200" as="targetPoint" />
          </mxGeometry>
        </mxCell>
        <mxCell id="P0zmnYXHMHFCvTIYEJyt-35" value="" style="endArrow=classic;html=1;rounded=0;exitX=0;exitY=1;exitDx=0;exitDy=0;entryX=1;entryY=0;entryDx=0;entryDy=0;" edge="1" parent="1" source="P0zmnYXHMHFCvTIYEJyt-15" target="P0zmnYXHMHFCvTIYEJyt-17">
          <mxGeometry width="50" height="50" relative="1" as="geometry">
            <mxPoint x="230" y="550" as="sourcePoint" />
            <mxPoint x="280" y="500" as="targetPoint" />
          </mxGeometry>
        </mxCell>
        <mxCell id="P0zmnYXHMHFCvTIYEJyt-36" value="" style="endArrow=classic;html=1;rounded=0;exitX=1;exitY=1;exitDx=0;exitDy=0;entryX=0;entryY=0;entryDx=0;entryDy=0;" edge="1" parent="1" source="P0zmnYXHMHFCvTIYEJyt-15" target="P0zmnYXHMHFCvTIYEJyt-23">
          <mxGeometry width="50" height="50" relative="1" as="geometry">
            <mxPoint x="230" y="550" as="sourcePoint" />
            <mxPoint x="280" y="500" as="targetPoint" />
          </mxGeometry>
        </mxCell>
        <mxCell id="P0zmnYXHMHFCvTIYEJyt-37" value="" style="endArrow=classic;html=1;rounded=0;exitX=0.5;exitY=1;exitDx=0;exitDy=0;entryX=0.5;entryY=0;entryDx=0;entryDy=0;" edge="1" parent="1" source="P0zmnYXHMHFCvTIYEJyt-23" target="P0zmnYXHMHFCvTIYEJyt-28">
          <mxGeometry width="50" height="50" relative="1" as="geometry">
            <mxPoint x="230" y="550" as="sourcePoint" />
            <mxPoint x="280" y="500" as="targetPoint" />
          </mxGeometry>
        </mxCell>
        <mxCell id="P0zmnYXHMHFCvTIYEJyt-38" value="" style="endArrow=classic;html=1;rounded=0;exitX=0.5;exitY=1;exitDx=0;exitDy=0;entryX=0.5;entryY=0;entryDx=0;entryDy=0;" edge="1" parent="1" source="P0zmnYXHMHFCvTIYEJyt-21" target="P0zmnYXHMHFCvTIYEJyt-25">
          <mxGeometry width="50" height="50" relative="1" as="geometry">
            <mxPoint x="230" y="550" as="sourcePoint" />
            <mxPoint x="280" y="500" as="targetPoint" />
          </mxGeometry>
        </mxCell>
        <mxCell id="P0zmnYXHMHFCvTIYEJyt-39" value="" style="endArrow=classic;html=1;rounded=0;exitX=0.3;exitY=0.971;exitDx=0;exitDy=0;exitPerimeter=0;entryX=0.5;entryY=0;entryDx=0;entryDy=0;" edge="1" parent="1" source="P0zmnYXHMHFCvTIYEJyt-15" target="P0zmnYXHMHFCvTIYEJyt-21">
          <mxGeometry width="50" height="50" relative="1" as="geometry">
            <mxPoint x="230" y="550" as="sourcePoint" />
            <mxPoint x="280" y="500" as="targetPoint" />
          </mxGeometry>
        </mxCell>
        <mxCell id="P0zmnYXHMHFCvTIYEJyt-40" value="" style="endArrow=classic;html=1;rounded=0;exitX=0.669;exitY=0.992;exitDx=0;exitDy=0;exitPerimeter=0;entryX=0.5;entryY=0;entryDx=0;entryDy=0;" edge="1" parent="1" source="P0zmnYXHMHFCvTIYEJyt-15" target="P0zmnYXHMHFCvTIYEJyt-19">
          <mxGeometry width="50" height="50" relative="1" as="geometry">
            <mxPoint x="230" y="550" as="sourcePoint" />
            <mxPoint x="280" y="500" as="targetPoint" />
          </mxGeometry>
        </mxCell>
      </root>
    </mxGraphModel>
  </diagram>
</mxfile>
